G04 #@! TF.GenerationSoftware,KiCad,Pcbnew,9.0.4*
G04 #@! TF.CreationDate,2025-08-28T22:57:06-04:00*
G04 #@! TF.ProjectId,PowerSupply,506f7765-7253-4757-9070-6c792e6b6963,rev?*
G04 #@! TF.SameCoordinates,Original*
G04 #@! TF.FileFunction,Other,User*
%FSLAX46Y46*%
G04 Gerber Fmt 4.6, Leading zero omitted, Abs format (unit mm)*
G04 Created by KiCad (PCBNEW 9.0.4) date 2025-08-28 22:57:06*
%MOMM*%
%LPD*%
G01*
G04 APERTURE LIST*
%ADD10C,0.050000*%
G04 APERTURE END LIST*
D10*
X92150000Y-83250000D02*
X92150000Y-73450000D01*
X98850000Y-83250000D02*
X92150000Y-83250000D01*
X92150000Y-73450000D02*
X98850000Y-73450000D01*
X98850000Y-73450000D02*
X98850000Y-83250000D01*
X88457500Y-88830000D02*
X93417500Y-88830000D01*
X88457500Y-91130000D02*
X88457500Y-88830000D01*
X93417500Y-88830000D02*
X93417500Y-91130000D01*
X93417500Y-91130000D02*
X88457500Y-91130000D01*
X88150000Y-83050000D02*
X91850000Y-83050000D01*
X88150000Y-84950000D02*
X88150000Y-83050000D01*
X91850000Y-83050000D02*
X91850000Y-84950000D01*
X91850000Y-84950000D02*
X88150000Y-84950000D01*
X104370000Y-84600000D02*
X106630000Y-84600000D01*
X104370000Y-89500000D02*
X104370000Y-84600000D01*
X106630000Y-84600000D02*
X106630000Y-89500000D01*
X106630000Y-89500000D02*
X104370000Y-89500000D01*
X105650000Y-77550000D02*
X109350000Y-77550000D01*
X105650000Y-79450000D02*
X105650000Y-77550000D01*
X109350000Y-77550000D02*
X109350000Y-79450000D01*
X109350000Y-79450000D02*
X105650000Y-79450000D01*
X106532500Y-81680000D02*
X108712500Y-81680000D01*
X106532500Y-82600000D02*
X106532500Y-81680000D01*
X108712500Y-81680000D02*
X108712500Y-82600000D01*
X108712500Y-82600000D02*
X106532500Y-82600000D01*
X99870000Y-81020000D02*
X101250000Y-81020000D01*
X99870000Y-83980000D02*
X99870000Y-81020000D01*
X101250000Y-80750000D02*
X104750000Y-80750000D01*
X101250000Y-81020000D02*
X101250000Y-80750000D01*
X101250000Y-83980000D02*
X99870000Y-83980000D01*
X101250000Y-84250000D02*
X101250000Y-83980000D01*
X104750000Y-80750000D02*
X104750000Y-81020000D01*
X104750000Y-81020000D02*
X106130000Y-81020000D01*
X104750000Y-83980000D02*
X104750000Y-84250000D01*
X104750000Y-84250000D02*
X101250000Y-84250000D01*
X106130000Y-81020000D02*
X106130000Y-83980000D01*
X106130000Y-83980000D02*
X104750000Y-83980000D01*
X100840000Y-73620000D02*
X100840000Y-77170000D01*
X100840000Y-73620000D02*
X104360000Y-73620000D01*
X104360000Y-77170000D02*
X100840000Y-77170000D01*
X104360000Y-77170000D02*
X104360000Y-73620000D01*
X101400000Y-77650000D02*
X105100000Y-77650000D01*
X101400000Y-79550000D02*
X101400000Y-77650000D01*
X105100000Y-77650000D02*
X105100000Y-79550000D01*
X105100000Y-79550000D02*
X101400000Y-79550000D01*
X89150000Y-86550000D02*
X92850000Y-86550000D01*
X89150000Y-88450000D02*
X89150000Y-86550000D01*
X92850000Y-86550000D02*
X92850000Y-88450000D01*
X92850000Y-88450000D02*
X89150000Y-88450000D01*
X96932500Y-88980000D02*
X101892500Y-88980000D01*
X96932500Y-92180000D02*
X96932500Y-88980000D01*
X101892500Y-88980000D02*
X101892500Y-92180000D01*
X101892500Y-92180000D02*
X96932500Y-92180000D01*
X106342500Y-76040000D02*
X108522500Y-76040000D01*
X106342500Y-76960000D02*
X106342500Y-76040000D01*
X108522500Y-76040000D02*
X108522500Y-76960000D01*
X108522500Y-76960000D02*
X106342500Y-76960000D01*
X80350000Y-71750000D02*
X91650000Y-71750000D01*
X80350000Y-82250000D02*
X80350000Y-71750000D01*
X91650000Y-71750000D02*
X91650000Y-82250000D01*
X91650000Y-82250000D02*
X80350000Y-82250000D01*
M02*
