G04 #@! TF.GenerationSoftware,KiCad,Pcbnew,9.0.4*
G04 #@! TF.CreationDate,2025-08-28T22:57:06-04:00*
G04 #@! TF.ProjectId,PowerSupply,506f7765-7253-4757-9070-6c792e6b6963,rev?*
G04 #@! TF.SameCoordinates,Original*
G04 #@! TF.FileFunction,Soldermask,Top*
G04 #@! TF.FilePolarity,Negative*
%FSLAX46Y46*%
G04 Gerber Fmt 4.6, Leading zero omitted, Abs format (unit mm)*
G04 Created by KiCad (PCBNEW 9.0.4) date 2025-08-28 22:57:06*
%MOMM*%
%LPD*%
G01*
G04 APERTURE LIST*
G04 Aperture macros list*
%AMRoundRect*
0 Rectangle with rounded corners*
0 $1 Rounding radius*
0 $2 $3 $4 $5 $6 $7 $8 $9 X,Y pos of 4 corners*
0 Add a 4 corners polygon primitive as box body*
4,1,4,$2,$3,$4,$5,$6,$7,$8,$9,$2,$3,0*
0 Add four circle primitives for the rounded corners*
1,1,$1+$1,$2,$3*
1,1,$1+$1,$4,$5*
1,1,$1+$1,$6,$7*
1,1,$1+$1,$8,$9*
0 Add four rect primitives between the rounded corners*
20,1,$1+$1,$2,$3,$4,$5,0*
20,1,$1+$1,$4,$5,$6,$7,0*
20,1,$1+$1,$6,$7,$8,$9,0*
20,1,$1+$1,$8,$9,$2,$3,0*%
G04 Aperture macros list end*
%ADD10C,0.000000*%
%ADD11RoundRect,0.250000X1.400000X1.000000X-1.400000X1.000000X-1.400000X-1.000000X1.400000X-1.000000X0*%
%ADD12RoundRect,0.250000X-0.412500X-0.650000X0.412500X-0.650000X0.412500X0.650000X-0.412500X0.650000X0*%
%ADD13RoundRect,0.250000X-0.350000X-0.450000X0.350000X-0.450000X0.350000X0.450000X-0.350000X0.450000X0*%
%ADD14RoundRect,0.250000X0.625000X-0.400000X0.625000X0.400000X-0.625000X0.400000X-0.625000X-0.400000X0*%
%ADD15RoundRect,0.155000X0.212500X0.155000X-0.212500X0.155000X-0.212500X-0.155000X0.212500X-0.155000X0*%
%ADD16RoundRect,0.125000X-0.600000X-0.125000X0.600000X-0.125000X0.600000X0.125000X-0.600000X0.125000X0*%
%ADD17R,1.570000X1.890000*%
%ADD18R,0.700000X0.510000*%
%ADD19RoundRect,0.250000X0.350000X0.450000X-0.350000X0.450000X-0.350000X-0.450000X0.350000X-0.450000X0*%
%ADD20RoundRect,0.250000X0.412500X1.100000X-0.412500X1.100000X-0.412500X-1.100000X0.412500X-1.100000X0*%
%ADD21RoundRect,0.155000X-0.212500X-0.155000X0.212500X-0.155000X0.212500X0.155000X-0.212500X0.155000X0*%
%ADD22R,1.800000X3.600000*%
G04 APERTURE END LIST*
D10*
G36*
X89550000Y-96680000D02*
G01*
X87350000Y-96680000D01*
X87350000Y-93930000D01*
X89550000Y-93930000D01*
X89550000Y-96680000D01*
G37*
G36*
X102650000Y-96650000D02*
G01*
X100450000Y-96650000D01*
X100450000Y-93900000D01*
X102650000Y-93900000D01*
X102650000Y-96650000D01*
G37*
G36*
X98080000Y-96680000D02*
G01*
X95880000Y-96680000D01*
X95880000Y-93930000D01*
X98080000Y-93930000D01*
X98080000Y-96680000D01*
G37*
G36*
X94620000Y-96680000D02*
G01*
X92420000Y-96680000D01*
X92420000Y-93930000D01*
X94620000Y-93930000D01*
X94620000Y-96680000D01*
G37*
D11*
X95500000Y-81750000D03*
X95500000Y-74950000D03*
D12*
X89375000Y-89980000D03*
X92500000Y-89980000D03*
D13*
X89000000Y-84000000D03*
X91000000Y-84000000D03*
D14*
X105500000Y-88600000D03*
X105500000Y-85500000D03*
D13*
X106500000Y-78500000D03*
X108500000Y-78500000D03*
D15*
X108190000Y-82140000D03*
X107055000Y-82140000D03*
D16*
X100850000Y-81525000D03*
X100850000Y-82175000D03*
X100850000Y-82825000D03*
X100850000Y-83475000D03*
X105150000Y-83475000D03*
X105150000Y-82825000D03*
X105150000Y-82175000D03*
X105150000Y-81525000D03*
D17*
X103000000Y-82500000D03*
D18*
X101440000Y-74450000D03*
X101440000Y-75400000D03*
X101440000Y-76350000D03*
X103760000Y-76350000D03*
X103760000Y-75400000D03*
X103760000Y-74450000D03*
D19*
X104250000Y-78600000D03*
X102250000Y-78600000D03*
D13*
X90000000Y-87500000D03*
X92000000Y-87500000D03*
D20*
X100975000Y-90580000D03*
X97850000Y-90580000D03*
D21*
X106865000Y-76500000D03*
X108000000Y-76500000D03*
D22*
X90500000Y-77000000D03*
X81500000Y-77000000D03*
M02*
