G04 #@! TF.GenerationSoftware,KiCad,Pcbnew,9.0.4*
G04 #@! TF.CreationDate,2025-08-28T22:57:06-04:00*
G04 #@! TF.ProjectId,PowerSupply,506f7765-7253-4757-9070-6c792e6b6963,rev?*
G04 #@! TF.SameCoordinates,Original*
G04 #@! TF.FileFunction,Other,User*
%FSLAX46Y46*%
G04 Gerber Fmt 4.6, Leading zero omitted, Abs format (unit mm)*
G04 Created by KiCad (PCBNEW 9.0.4) date 2025-08-28 22:57:06*
%MOMM*%
%LPD*%
G01*
G04 APERTURE LIST*
%ADD10C,0.150000*%
%ADD11C,0.025000*%
G04 APERTURE END LIST*
D10*
X91613333Y-105034819D02*
X91422857Y-105034819D01*
X91422857Y-105034819D02*
X91327619Y-105082438D01*
X91327619Y-105082438D02*
X91280000Y-105130057D01*
X91280000Y-105130057D02*
X91184762Y-105272914D01*
X91184762Y-105272914D02*
X91137143Y-105463390D01*
X91137143Y-105463390D02*
X91137143Y-105844342D01*
X91137143Y-105844342D02*
X91184762Y-105939580D01*
X91184762Y-105939580D02*
X91232381Y-105987200D01*
X91232381Y-105987200D02*
X91327619Y-106034819D01*
X91327619Y-106034819D02*
X91518095Y-106034819D01*
X91518095Y-106034819D02*
X91613333Y-105987200D01*
X91613333Y-105987200D02*
X91660952Y-105939580D01*
X91660952Y-105939580D02*
X91708571Y-105844342D01*
X91708571Y-105844342D02*
X91708571Y-105606247D01*
X91708571Y-105606247D02*
X91660952Y-105511009D01*
X91660952Y-105511009D02*
X91613333Y-105463390D01*
X91613333Y-105463390D02*
X91518095Y-105415771D01*
X91518095Y-105415771D02*
X91327619Y-105415771D01*
X91327619Y-105415771D02*
X91232381Y-105463390D01*
X91232381Y-105463390D02*
X91184762Y-105511009D01*
X91184762Y-105511009D02*
X91137143Y-105606247D01*
X92137143Y-105939580D02*
X92184762Y-105987200D01*
X92184762Y-105987200D02*
X92137143Y-106034819D01*
X92137143Y-106034819D02*
X92089524Y-105987200D01*
X92089524Y-105987200D02*
X92137143Y-105939580D01*
X92137143Y-105939580D02*
X92137143Y-106034819D01*
X92518095Y-105034819D02*
X93184761Y-105034819D01*
X93184761Y-105034819D02*
X92756190Y-106034819D01*
X93708571Y-105463390D02*
X93613333Y-105415771D01*
X93613333Y-105415771D02*
X93565714Y-105368152D01*
X93565714Y-105368152D02*
X93518095Y-105272914D01*
X93518095Y-105272914D02*
X93518095Y-105225295D01*
X93518095Y-105225295D02*
X93565714Y-105130057D01*
X93565714Y-105130057D02*
X93613333Y-105082438D01*
X93613333Y-105082438D02*
X93708571Y-105034819D01*
X93708571Y-105034819D02*
X93899047Y-105034819D01*
X93899047Y-105034819D02*
X93994285Y-105082438D01*
X93994285Y-105082438D02*
X94041904Y-105130057D01*
X94041904Y-105130057D02*
X94089523Y-105225295D01*
X94089523Y-105225295D02*
X94089523Y-105272914D01*
X94089523Y-105272914D02*
X94041904Y-105368152D01*
X94041904Y-105368152D02*
X93994285Y-105415771D01*
X93994285Y-105415771D02*
X93899047Y-105463390D01*
X93899047Y-105463390D02*
X93708571Y-105463390D01*
X93708571Y-105463390D02*
X93613333Y-105511009D01*
X93613333Y-105511009D02*
X93565714Y-105558628D01*
X93565714Y-105558628D02*
X93518095Y-105653866D01*
X93518095Y-105653866D02*
X93518095Y-105844342D01*
X93518095Y-105844342D02*
X93565714Y-105939580D01*
X93565714Y-105939580D02*
X93613333Y-105987200D01*
X93613333Y-105987200D02*
X93708571Y-106034819D01*
X93708571Y-106034819D02*
X93899047Y-106034819D01*
X93899047Y-106034819D02*
X93994285Y-105987200D01*
X93994285Y-105987200D02*
X94041904Y-105939580D01*
X94041904Y-105939580D02*
X94089523Y-105844342D01*
X94089523Y-105844342D02*
X94089523Y-105653866D01*
X94089523Y-105653866D02*
X94041904Y-105558628D01*
X94041904Y-105558628D02*
X93994285Y-105511009D01*
X93994285Y-105511009D02*
X93899047Y-105463390D01*
X94708571Y-105034819D02*
X94803809Y-105034819D01*
X94803809Y-105034819D02*
X94899047Y-105082438D01*
X94899047Y-105082438D02*
X94946666Y-105130057D01*
X94946666Y-105130057D02*
X94994285Y-105225295D01*
X94994285Y-105225295D02*
X95041904Y-105415771D01*
X95041904Y-105415771D02*
X95041904Y-105653866D01*
X95041904Y-105653866D02*
X94994285Y-105844342D01*
X94994285Y-105844342D02*
X94946666Y-105939580D01*
X94946666Y-105939580D02*
X94899047Y-105987200D01*
X94899047Y-105987200D02*
X94803809Y-106034819D01*
X94803809Y-106034819D02*
X94708571Y-106034819D01*
X94708571Y-106034819D02*
X94613333Y-105987200D01*
X94613333Y-105987200D02*
X94565714Y-105939580D01*
X94565714Y-105939580D02*
X94518095Y-105844342D01*
X94518095Y-105844342D02*
X94470476Y-105653866D01*
X94470476Y-105653866D02*
X94470476Y-105415771D01*
X94470476Y-105415771D02*
X94518095Y-105225295D01*
X94518095Y-105225295D02*
X94565714Y-105130057D01*
X94565714Y-105130057D02*
X94613333Y-105082438D01*
X94613333Y-105082438D02*
X94708571Y-105034819D01*
X95660952Y-105034819D02*
X95756190Y-105034819D01*
X95756190Y-105034819D02*
X95851428Y-105082438D01*
X95851428Y-105082438D02*
X95899047Y-105130057D01*
X95899047Y-105130057D02*
X95946666Y-105225295D01*
X95946666Y-105225295D02*
X95994285Y-105415771D01*
X95994285Y-105415771D02*
X95994285Y-105653866D01*
X95994285Y-105653866D02*
X95946666Y-105844342D01*
X95946666Y-105844342D02*
X95899047Y-105939580D01*
X95899047Y-105939580D02*
X95851428Y-105987200D01*
X95851428Y-105987200D02*
X95756190Y-106034819D01*
X95756190Y-106034819D02*
X95660952Y-106034819D01*
X95660952Y-106034819D02*
X95565714Y-105987200D01*
X95565714Y-105987200D02*
X95518095Y-105939580D01*
X95518095Y-105939580D02*
X95470476Y-105844342D01*
X95470476Y-105844342D02*
X95422857Y-105653866D01*
X95422857Y-105653866D02*
X95422857Y-105415771D01*
X95422857Y-105415771D02*
X95470476Y-105225295D01*
X95470476Y-105225295D02*
X95518095Y-105130057D01*
X95518095Y-105130057D02*
X95565714Y-105082438D01*
X95565714Y-105082438D02*
X95660952Y-105034819D01*
X97184762Y-106034819D02*
X97184762Y-105368152D01*
X97184762Y-105463390D02*
X97232381Y-105415771D01*
X97232381Y-105415771D02*
X97327619Y-105368152D01*
X97327619Y-105368152D02*
X97470476Y-105368152D01*
X97470476Y-105368152D02*
X97565714Y-105415771D01*
X97565714Y-105415771D02*
X97613333Y-105511009D01*
X97613333Y-105511009D02*
X97613333Y-106034819D01*
X97613333Y-105511009D02*
X97660952Y-105415771D01*
X97660952Y-105415771D02*
X97756190Y-105368152D01*
X97756190Y-105368152D02*
X97899047Y-105368152D01*
X97899047Y-105368152D02*
X97994286Y-105415771D01*
X97994286Y-105415771D02*
X98041905Y-105511009D01*
X98041905Y-105511009D02*
X98041905Y-106034819D01*
X98518095Y-106034819D02*
X98518095Y-105368152D01*
X98518095Y-105463390D02*
X98565714Y-105415771D01*
X98565714Y-105415771D02*
X98660952Y-105368152D01*
X98660952Y-105368152D02*
X98803809Y-105368152D01*
X98803809Y-105368152D02*
X98899047Y-105415771D01*
X98899047Y-105415771D02*
X98946666Y-105511009D01*
X98946666Y-105511009D02*
X98946666Y-106034819D01*
X98946666Y-105511009D02*
X98994285Y-105415771D01*
X98994285Y-105415771D02*
X99089523Y-105368152D01*
X99089523Y-105368152D02*
X99232380Y-105368152D01*
X99232380Y-105368152D02*
X99327619Y-105415771D01*
X99327619Y-105415771D02*
X99375238Y-105511009D01*
X99375238Y-105511009D02*
X99375238Y-106034819D01*
X91860000Y-95990000D02*
X91860000Y-104736420D01*
X98640000Y-104736420D02*
X98640000Y-95950000D01*
X91860000Y-104150000D02*
X98640000Y-104150000D01*
X91860000Y-104150000D02*
X92986504Y-103563579D01*
X91860000Y-104150000D02*
X92986504Y-104736421D01*
X98640000Y-104150000D02*
X97513496Y-104736421D01*
X98640000Y-104150000D02*
X97513496Y-103563579D01*
X85365713Y-99579771D02*
X85737141Y-99579771D01*
X85737141Y-99579771D02*
X85537141Y-99808342D01*
X85537141Y-99808342D02*
X85622856Y-99808342D01*
X85622856Y-99808342D02*
X85679999Y-99836914D01*
X85679999Y-99836914D02*
X85708570Y-99865485D01*
X85708570Y-99865485D02*
X85737141Y-99922628D01*
X85737141Y-99922628D02*
X85737141Y-100065485D01*
X85737141Y-100065485D02*
X85708570Y-100122628D01*
X85708570Y-100122628D02*
X85679999Y-100151200D01*
X85679999Y-100151200D02*
X85622856Y-100179771D01*
X85622856Y-100179771D02*
X85451427Y-100179771D01*
X85451427Y-100179771D02*
X85394284Y-100151200D01*
X85394284Y-100151200D02*
X85365713Y-100122628D01*
X85994285Y-100122628D02*
X86022856Y-100151200D01*
X86022856Y-100151200D02*
X85994285Y-100179771D01*
X85994285Y-100179771D02*
X85965713Y-100151200D01*
X85965713Y-100151200D02*
X85994285Y-100122628D01*
X85994285Y-100122628D02*
X85994285Y-100179771D01*
X86565713Y-99579771D02*
X86279999Y-99579771D01*
X86279999Y-99579771D02*
X86251427Y-99865485D01*
X86251427Y-99865485D02*
X86279999Y-99836914D01*
X86279999Y-99836914D02*
X86337142Y-99808342D01*
X86337142Y-99808342D02*
X86479999Y-99808342D01*
X86479999Y-99808342D02*
X86537142Y-99836914D01*
X86537142Y-99836914D02*
X86565713Y-99865485D01*
X86565713Y-99865485D02*
X86594284Y-99922628D01*
X86594284Y-99922628D02*
X86594284Y-100065485D01*
X86594284Y-100065485D02*
X86565713Y-100122628D01*
X86565713Y-100122628D02*
X86537142Y-100151200D01*
X86537142Y-100151200D02*
X86479999Y-100179771D01*
X86479999Y-100179771D02*
X86337142Y-100179771D01*
X86337142Y-100179771D02*
X86279999Y-100151200D01*
X86279999Y-100151200D02*
X86251427Y-100122628D01*
X86822856Y-99636914D02*
X86851428Y-99608342D01*
X86851428Y-99608342D02*
X86908571Y-99579771D01*
X86908571Y-99579771D02*
X87051428Y-99579771D01*
X87051428Y-99579771D02*
X87108571Y-99608342D01*
X87108571Y-99608342D02*
X87137142Y-99636914D01*
X87137142Y-99636914D02*
X87165713Y-99694057D01*
X87165713Y-99694057D02*
X87165713Y-99751200D01*
X87165713Y-99751200D02*
X87137142Y-99836914D01*
X87137142Y-99836914D02*
X86794285Y-100179771D01*
X86794285Y-100179771D02*
X87165713Y-100179771D01*
X87537142Y-99579771D02*
X87594285Y-99579771D01*
X87594285Y-99579771D02*
X87651428Y-99608342D01*
X87651428Y-99608342D02*
X87680000Y-99636914D01*
X87680000Y-99636914D02*
X87708571Y-99694057D01*
X87708571Y-99694057D02*
X87737142Y-99808342D01*
X87737142Y-99808342D02*
X87737142Y-99951200D01*
X87737142Y-99951200D02*
X87708571Y-100065485D01*
X87708571Y-100065485D02*
X87680000Y-100122628D01*
X87680000Y-100122628D02*
X87651428Y-100151200D01*
X87651428Y-100151200D02*
X87594285Y-100179771D01*
X87594285Y-100179771D02*
X87537142Y-100179771D01*
X87537142Y-100179771D02*
X87480000Y-100151200D01*
X87480000Y-100151200D02*
X87451428Y-100122628D01*
X87451428Y-100122628D02*
X87422857Y-100065485D01*
X87422857Y-100065485D02*
X87394285Y-99951200D01*
X87394285Y-99951200D02*
X87394285Y-99808342D01*
X87394285Y-99808342D02*
X87422857Y-99694057D01*
X87422857Y-99694057D02*
X87451428Y-99636914D01*
X87451428Y-99636914D02*
X87480000Y-99608342D01*
X87480000Y-99608342D02*
X87537142Y-99579771D01*
X88108571Y-99579771D02*
X88165714Y-99579771D01*
X88165714Y-99579771D02*
X88222857Y-99608342D01*
X88222857Y-99608342D02*
X88251429Y-99636914D01*
X88251429Y-99636914D02*
X88280000Y-99694057D01*
X88280000Y-99694057D02*
X88308571Y-99808342D01*
X88308571Y-99808342D02*
X88308571Y-99951200D01*
X88308571Y-99951200D02*
X88280000Y-100065485D01*
X88280000Y-100065485D02*
X88251429Y-100122628D01*
X88251429Y-100122628D02*
X88222857Y-100151200D01*
X88222857Y-100151200D02*
X88165714Y-100179771D01*
X88165714Y-100179771D02*
X88108571Y-100179771D01*
X88108571Y-100179771D02*
X88051429Y-100151200D01*
X88051429Y-100151200D02*
X88022857Y-100122628D01*
X88022857Y-100122628D02*
X87994286Y-100065485D01*
X87994286Y-100065485D02*
X87965714Y-99951200D01*
X87965714Y-99951200D02*
X87965714Y-99808342D01*
X87965714Y-99808342D02*
X87994286Y-99694057D01*
X87994286Y-99694057D02*
X88022857Y-99636914D01*
X88022857Y-99636914D02*
X88051429Y-99608342D01*
X88051429Y-99608342D02*
X88108571Y-99579771D01*
X89022858Y-100179771D02*
X89022858Y-99779771D01*
X89022858Y-99836914D02*
X89051429Y-99808342D01*
X89051429Y-99808342D02*
X89108572Y-99779771D01*
X89108572Y-99779771D02*
X89194286Y-99779771D01*
X89194286Y-99779771D02*
X89251429Y-99808342D01*
X89251429Y-99808342D02*
X89280001Y-99865485D01*
X89280001Y-99865485D02*
X89280001Y-100179771D01*
X89280001Y-99865485D02*
X89308572Y-99808342D01*
X89308572Y-99808342D02*
X89365715Y-99779771D01*
X89365715Y-99779771D02*
X89451429Y-99779771D01*
X89451429Y-99779771D02*
X89508572Y-99808342D01*
X89508572Y-99808342D02*
X89537143Y-99865485D01*
X89537143Y-99865485D02*
X89537143Y-100179771D01*
X89822858Y-100179771D02*
X89822858Y-99779771D01*
X89822858Y-99836914D02*
X89851429Y-99808342D01*
X89851429Y-99808342D02*
X89908572Y-99779771D01*
X89908572Y-99779771D02*
X89994286Y-99779771D01*
X89994286Y-99779771D02*
X90051429Y-99808342D01*
X90051429Y-99808342D02*
X90080001Y-99865485D01*
X90080001Y-99865485D02*
X90080001Y-100179771D01*
X90080001Y-99865485D02*
X90108572Y-99808342D01*
X90108572Y-99808342D02*
X90165715Y-99779771D01*
X90165715Y-99779771D02*
X90251429Y-99779771D01*
X90251429Y-99779771D02*
X90308572Y-99808342D01*
X90308572Y-99808342D02*
X90337143Y-99865485D01*
X90337143Y-99865485D02*
X90337143Y-100179771D01*
X87250000Y-96950000D02*
X87250000Y-99196420D01*
X90770000Y-99196420D02*
X90770000Y-96950000D01*
X87250000Y-98610000D02*
X90770000Y-98610000D01*
X87250000Y-98610000D02*
X88376504Y-98023579D01*
X87250000Y-98610000D02*
X88376504Y-99196421D01*
X90770000Y-98610000D02*
X89643496Y-99196421D01*
X90770000Y-98610000D02*
X89643496Y-98023579D01*
X81786914Y-98185715D02*
X81758342Y-98157143D01*
X81758342Y-98157143D02*
X81729771Y-98100001D01*
X81729771Y-98100001D02*
X81729771Y-97957143D01*
X81729771Y-97957143D02*
X81758342Y-97900001D01*
X81758342Y-97900001D02*
X81786914Y-97871429D01*
X81786914Y-97871429D02*
X81844057Y-97842858D01*
X81844057Y-97842858D02*
X81901200Y-97842858D01*
X81901200Y-97842858D02*
X81986914Y-97871429D01*
X81986914Y-97871429D02*
X82329771Y-98214286D01*
X82329771Y-98214286D02*
X82329771Y-97842858D01*
X82272628Y-97585714D02*
X82301200Y-97557143D01*
X82301200Y-97557143D02*
X82329771Y-97585714D01*
X82329771Y-97585714D02*
X82301200Y-97614286D01*
X82301200Y-97614286D02*
X82272628Y-97585714D01*
X82272628Y-97585714D02*
X82329771Y-97585714D01*
X81729771Y-97357143D02*
X81729771Y-96957143D01*
X81729771Y-96957143D02*
X82329771Y-97214286D01*
X81729771Y-96442857D02*
X81729771Y-96728571D01*
X81729771Y-96728571D02*
X82015485Y-96757143D01*
X82015485Y-96757143D02*
X81986914Y-96728571D01*
X81986914Y-96728571D02*
X81958342Y-96671429D01*
X81958342Y-96671429D02*
X81958342Y-96528571D01*
X81958342Y-96528571D02*
X81986914Y-96471429D01*
X81986914Y-96471429D02*
X82015485Y-96442857D01*
X82015485Y-96442857D02*
X82072628Y-96414286D01*
X82072628Y-96414286D02*
X82215485Y-96414286D01*
X82215485Y-96414286D02*
X82272628Y-96442857D01*
X82272628Y-96442857D02*
X82301200Y-96471429D01*
X82301200Y-96471429D02*
X82329771Y-96528571D01*
X82329771Y-96528571D02*
X82329771Y-96671429D01*
X82329771Y-96671429D02*
X82301200Y-96728571D01*
X82301200Y-96728571D02*
X82272628Y-96757143D01*
X81729771Y-96042857D02*
X81729771Y-95985714D01*
X81729771Y-95985714D02*
X81758342Y-95928571D01*
X81758342Y-95928571D02*
X81786914Y-95900000D01*
X81786914Y-95900000D02*
X81844057Y-95871428D01*
X81844057Y-95871428D02*
X81958342Y-95842857D01*
X81958342Y-95842857D02*
X82101200Y-95842857D01*
X82101200Y-95842857D02*
X82215485Y-95871428D01*
X82215485Y-95871428D02*
X82272628Y-95900000D01*
X82272628Y-95900000D02*
X82301200Y-95928571D01*
X82301200Y-95928571D02*
X82329771Y-95985714D01*
X82329771Y-95985714D02*
X82329771Y-96042857D01*
X82329771Y-96042857D02*
X82301200Y-96100000D01*
X82301200Y-96100000D02*
X82272628Y-96128571D01*
X82272628Y-96128571D02*
X82215485Y-96157142D01*
X82215485Y-96157142D02*
X82101200Y-96185714D01*
X82101200Y-96185714D02*
X81958342Y-96185714D01*
X81958342Y-96185714D02*
X81844057Y-96157142D01*
X81844057Y-96157142D02*
X81786914Y-96128571D01*
X81786914Y-96128571D02*
X81758342Y-96100000D01*
X81758342Y-96100000D02*
X81729771Y-96042857D01*
X81729771Y-95471428D02*
X81729771Y-95414285D01*
X81729771Y-95414285D02*
X81758342Y-95357142D01*
X81758342Y-95357142D02*
X81786914Y-95328571D01*
X81786914Y-95328571D02*
X81844057Y-95299999D01*
X81844057Y-95299999D02*
X81958342Y-95271428D01*
X81958342Y-95271428D02*
X82101200Y-95271428D01*
X82101200Y-95271428D02*
X82215485Y-95299999D01*
X82215485Y-95299999D02*
X82272628Y-95328571D01*
X82272628Y-95328571D02*
X82301200Y-95357142D01*
X82301200Y-95357142D02*
X82329771Y-95414285D01*
X82329771Y-95414285D02*
X82329771Y-95471428D01*
X82329771Y-95471428D02*
X82301200Y-95528571D01*
X82301200Y-95528571D02*
X82272628Y-95557142D01*
X82272628Y-95557142D02*
X82215485Y-95585713D01*
X82215485Y-95585713D02*
X82101200Y-95614285D01*
X82101200Y-95614285D02*
X81958342Y-95614285D01*
X81958342Y-95614285D02*
X81844057Y-95585713D01*
X81844057Y-95585713D02*
X81786914Y-95557142D01*
X81786914Y-95557142D02*
X81758342Y-95528571D01*
X81758342Y-95528571D02*
X81729771Y-95471428D01*
X82329771Y-94557141D02*
X81929771Y-94557141D01*
X81986914Y-94557141D02*
X81958342Y-94528570D01*
X81958342Y-94528570D02*
X81929771Y-94471427D01*
X81929771Y-94471427D02*
X81929771Y-94385713D01*
X81929771Y-94385713D02*
X81958342Y-94328570D01*
X81958342Y-94328570D02*
X82015485Y-94299999D01*
X82015485Y-94299999D02*
X82329771Y-94299999D01*
X82015485Y-94299999D02*
X81958342Y-94271427D01*
X81958342Y-94271427D02*
X81929771Y-94214284D01*
X81929771Y-94214284D02*
X81929771Y-94128570D01*
X81929771Y-94128570D02*
X81958342Y-94071427D01*
X81958342Y-94071427D02*
X82015485Y-94042856D01*
X82015485Y-94042856D02*
X82329771Y-94042856D01*
X82329771Y-93757141D02*
X81929771Y-93757141D01*
X81986914Y-93757141D02*
X81958342Y-93728570D01*
X81958342Y-93728570D02*
X81929771Y-93671427D01*
X81929771Y-93671427D02*
X81929771Y-93585713D01*
X81929771Y-93585713D02*
X81958342Y-93528570D01*
X81958342Y-93528570D02*
X82015485Y-93499999D01*
X82015485Y-93499999D02*
X82329771Y-93499999D01*
X82015485Y-93499999D02*
X81958342Y-93471427D01*
X81958342Y-93471427D02*
X81929771Y-93414284D01*
X81929771Y-93414284D02*
X81929771Y-93328570D01*
X81929771Y-93328570D02*
X81958342Y-93271427D01*
X81958342Y-93271427D02*
X82015485Y-93242856D01*
X82015485Y-93242856D02*
X82329771Y-93242856D01*
X86850000Y-96680000D02*
X83363580Y-96680000D01*
X83363580Y-93930000D02*
X86750000Y-93930000D01*
X83950000Y-96680000D02*
X83950000Y-93930000D01*
X83950000Y-96680000D02*
X83363579Y-95553496D01*
X83950000Y-96680000D02*
X84536421Y-95553496D01*
X83950000Y-93930000D02*
X84536421Y-95056504D01*
X83950000Y-93930000D02*
X83363579Y-95056504D01*
D11*
X90962858Y-100404961D02*
X90905715Y-100404961D01*
X90934287Y-100404961D02*
X90934287Y-100304961D01*
X90934287Y-100304961D02*
X90924763Y-100319247D01*
X90924763Y-100319247D02*
X90915239Y-100328771D01*
X90915239Y-100328771D02*
X90905715Y-100333533D01*
X91005715Y-100395438D02*
X91010477Y-100400200D01*
X91010477Y-100400200D02*
X91005715Y-100404961D01*
X91005715Y-100404961D02*
X91000953Y-100400200D01*
X91000953Y-100400200D02*
X91005715Y-100395438D01*
X91005715Y-100395438D02*
X91005715Y-100404961D01*
X91072382Y-100304961D02*
X91081905Y-100304961D01*
X91081905Y-100304961D02*
X91091429Y-100309723D01*
X91091429Y-100309723D02*
X91096191Y-100314485D01*
X91096191Y-100314485D02*
X91100953Y-100324009D01*
X91100953Y-100324009D02*
X91105715Y-100343057D01*
X91105715Y-100343057D02*
X91105715Y-100366866D01*
X91105715Y-100366866D02*
X91100953Y-100385914D01*
X91100953Y-100385914D02*
X91096191Y-100395438D01*
X91096191Y-100395438D02*
X91091429Y-100400200D01*
X91091429Y-100400200D02*
X91081905Y-100404961D01*
X91081905Y-100404961D02*
X91072382Y-100404961D01*
X91072382Y-100404961D02*
X91062858Y-100400200D01*
X91062858Y-100400200D02*
X91058096Y-100395438D01*
X91058096Y-100395438D02*
X91053334Y-100385914D01*
X91053334Y-100385914D02*
X91048572Y-100366866D01*
X91048572Y-100366866D02*
X91048572Y-100343057D01*
X91048572Y-100343057D02*
X91053334Y-100324009D01*
X91053334Y-100324009D02*
X91058096Y-100314485D01*
X91058096Y-100314485D02*
X91062858Y-100309723D01*
X91062858Y-100309723D02*
X91072382Y-100304961D01*
X91153334Y-100404961D02*
X91172382Y-100404961D01*
X91172382Y-100404961D02*
X91181905Y-100400200D01*
X91181905Y-100400200D02*
X91186667Y-100395438D01*
X91186667Y-100395438D02*
X91196191Y-100381152D01*
X91196191Y-100381152D02*
X91200953Y-100362104D01*
X91200953Y-100362104D02*
X91200953Y-100324009D01*
X91200953Y-100324009D02*
X91196191Y-100314485D01*
X91196191Y-100314485D02*
X91191429Y-100309723D01*
X91191429Y-100309723D02*
X91181905Y-100304961D01*
X91181905Y-100304961D02*
X91162858Y-100304961D01*
X91162858Y-100304961D02*
X91153334Y-100309723D01*
X91153334Y-100309723D02*
X91148572Y-100314485D01*
X91148572Y-100314485D02*
X91143810Y-100324009D01*
X91143810Y-100324009D02*
X91143810Y-100347819D01*
X91143810Y-100347819D02*
X91148572Y-100357342D01*
X91148572Y-100357342D02*
X91153334Y-100362104D01*
X91153334Y-100362104D02*
X91162858Y-100366866D01*
X91162858Y-100366866D02*
X91181905Y-100366866D01*
X91181905Y-100366866D02*
X91191429Y-100362104D01*
X91191429Y-100362104D02*
X91196191Y-100357342D01*
X91196191Y-100357342D02*
X91200953Y-100347819D01*
X91262858Y-100304961D02*
X91272381Y-100304961D01*
X91272381Y-100304961D02*
X91281905Y-100309723D01*
X91281905Y-100309723D02*
X91286667Y-100314485D01*
X91286667Y-100314485D02*
X91291429Y-100324009D01*
X91291429Y-100324009D02*
X91296191Y-100343057D01*
X91296191Y-100343057D02*
X91296191Y-100366866D01*
X91296191Y-100366866D02*
X91291429Y-100385914D01*
X91291429Y-100385914D02*
X91286667Y-100395438D01*
X91286667Y-100395438D02*
X91281905Y-100400200D01*
X91281905Y-100400200D02*
X91272381Y-100404961D01*
X91272381Y-100404961D02*
X91262858Y-100404961D01*
X91262858Y-100404961D02*
X91253334Y-100400200D01*
X91253334Y-100400200D02*
X91248572Y-100395438D01*
X91248572Y-100395438D02*
X91243810Y-100385914D01*
X91243810Y-100385914D02*
X91239048Y-100366866D01*
X91239048Y-100366866D02*
X91239048Y-100343057D01*
X91239048Y-100343057D02*
X91243810Y-100324009D01*
X91243810Y-100324009D02*
X91248572Y-100314485D01*
X91248572Y-100314485D02*
X91253334Y-100309723D01*
X91253334Y-100309723D02*
X91262858Y-100304961D01*
X91358096Y-100304961D02*
X91367619Y-100304961D01*
X91367619Y-100304961D02*
X91377143Y-100309723D01*
X91377143Y-100309723D02*
X91381905Y-100314485D01*
X91381905Y-100314485D02*
X91386667Y-100324009D01*
X91386667Y-100324009D02*
X91391429Y-100343057D01*
X91391429Y-100343057D02*
X91391429Y-100366866D01*
X91391429Y-100366866D02*
X91386667Y-100385914D01*
X91386667Y-100385914D02*
X91381905Y-100395438D01*
X91381905Y-100395438D02*
X91377143Y-100400200D01*
X91377143Y-100400200D02*
X91367619Y-100404961D01*
X91367619Y-100404961D02*
X91358096Y-100404961D01*
X91358096Y-100404961D02*
X91348572Y-100400200D01*
X91348572Y-100400200D02*
X91343810Y-100395438D01*
X91343810Y-100395438D02*
X91339048Y-100385914D01*
X91339048Y-100385914D02*
X91334286Y-100366866D01*
X91334286Y-100366866D02*
X91334286Y-100343057D01*
X91334286Y-100343057D02*
X91339048Y-100324009D01*
X91339048Y-100324009D02*
X91343810Y-100314485D01*
X91343810Y-100314485D02*
X91348572Y-100309723D01*
X91348572Y-100309723D02*
X91358096Y-100304961D01*
X91510476Y-100404961D02*
X91510476Y-100338295D01*
X91510476Y-100347819D02*
X91515238Y-100343057D01*
X91515238Y-100343057D02*
X91524762Y-100338295D01*
X91524762Y-100338295D02*
X91539047Y-100338295D01*
X91539047Y-100338295D02*
X91548571Y-100343057D01*
X91548571Y-100343057D02*
X91553333Y-100352580D01*
X91553333Y-100352580D02*
X91553333Y-100404961D01*
X91553333Y-100352580D02*
X91558095Y-100343057D01*
X91558095Y-100343057D02*
X91567619Y-100338295D01*
X91567619Y-100338295D02*
X91581905Y-100338295D01*
X91581905Y-100338295D02*
X91591428Y-100343057D01*
X91591428Y-100343057D02*
X91596190Y-100352580D01*
X91596190Y-100352580D02*
X91596190Y-100404961D01*
X91643809Y-100404961D02*
X91643809Y-100338295D01*
X91643809Y-100347819D02*
X91648571Y-100343057D01*
X91648571Y-100343057D02*
X91658095Y-100338295D01*
X91658095Y-100338295D02*
X91672380Y-100338295D01*
X91672380Y-100338295D02*
X91681904Y-100343057D01*
X91681904Y-100343057D02*
X91686666Y-100352580D01*
X91686666Y-100352580D02*
X91686666Y-100404961D01*
X91686666Y-100352580D02*
X91691428Y-100343057D01*
X91691428Y-100343057D02*
X91700952Y-100338295D01*
X91700952Y-100338295D02*
X91715238Y-100338295D01*
X91715238Y-100338295D02*
X91724761Y-100343057D01*
X91724761Y-100343057D02*
X91729523Y-100352580D01*
X91729523Y-100352580D02*
X91729523Y-100404961D01*
D10*
X90770000Y-95760000D02*
X90770000Y-101766420D01*
X91860000Y-101766420D02*
X91860000Y-95990000D01*
X90770000Y-101180000D02*
X91860000Y-101180000D01*
X90770000Y-101180000D02*
X91896504Y-100593579D01*
X90770000Y-101180000D02*
X91896504Y-101766421D01*
X91860000Y-101180000D02*
X90733496Y-101766421D01*
X91860000Y-101180000D02*
X90733496Y-100593579D01*
X107246914Y-98445715D02*
X107218342Y-98417143D01*
X107218342Y-98417143D02*
X107189771Y-98360001D01*
X107189771Y-98360001D02*
X107189771Y-98217143D01*
X107189771Y-98217143D02*
X107218342Y-98160001D01*
X107218342Y-98160001D02*
X107246914Y-98131429D01*
X107246914Y-98131429D02*
X107304057Y-98102858D01*
X107304057Y-98102858D02*
X107361200Y-98102858D01*
X107361200Y-98102858D02*
X107446914Y-98131429D01*
X107446914Y-98131429D02*
X107789771Y-98474286D01*
X107789771Y-98474286D02*
X107789771Y-98102858D01*
X107732628Y-97845714D02*
X107761200Y-97817143D01*
X107761200Y-97817143D02*
X107789771Y-97845714D01*
X107789771Y-97845714D02*
X107761200Y-97874286D01*
X107761200Y-97874286D02*
X107732628Y-97845714D01*
X107732628Y-97845714D02*
X107789771Y-97845714D01*
X107189771Y-97617143D02*
X107189771Y-97217143D01*
X107189771Y-97217143D02*
X107789771Y-97474286D01*
X107189771Y-96702857D02*
X107189771Y-96988571D01*
X107189771Y-96988571D02*
X107475485Y-97017143D01*
X107475485Y-97017143D02*
X107446914Y-96988571D01*
X107446914Y-96988571D02*
X107418342Y-96931429D01*
X107418342Y-96931429D02*
X107418342Y-96788571D01*
X107418342Y-96788571D02*
X107446914Y-96731429D01*
X107446914Y-96731429D02*
X107475485Y-96702857D01*
X107475485Y-96702857D02*
X107532628Y-96674286D01*
X107532628Y-96674286D02*
X107675485Y-96674286D01*
X107675485Y-96674286D02*
X107732628Y-96702857D01*
X107732628Y-96702857D02*
X107761200Y-96731429D01*
X107761200Y-96731429D02*
X107789771Y-96788571D01*
X107789771Y-96788571D02*
X107789771Y-96931429D01*
X107789771Y-96931429D02*
X107761200Y-96988571D01*
X107761200Y-96988571D02*
X107732628Y-97017143D01*
X107189771Y-96302857D02*
X107189771Y-96245714D01*
X107189771Y-96245714D02*
X107218342Y-96188571D01*
X107218342Y-96188571D02*
X107246914Y-96160000D01*
X107246914Y-96160000D02*
X107304057Y-96131428D01*
X107304057Y-96131428D02*
X107418342Y-96102857D01*
X107418342Y-96102857D02*
X107561200Y-96102857D01*
X107561200Y-96102857D02*
X107675485Y-96131428D01*
X107675485Y-96131428D02*
X107732628Y-96160000D01*
X107732628Y-96160000D02*
X107761200Y-96188571D01*
X107761200Y-96188571D02*
X107789771Y-96245714D01*
X107789771Y-96245714D02*
X107789771Y-96302857D01*
X107789771Y-96302857D02*
X107761200Y-96360000D01*
X107761200Y-96360000D02*
X107732628Y-96388571D01*
X107732628Y-96388571D02*
X107675485Y-96417142D01*
X107675485Y-96417142D02*
X107561200Y-96445714D01*
X107561200Y-96445714D02*
X107418342Y-96445714D01*
X107418342Y-96445714D02*
X107304057Y-96417142D01*
X107304057Y-96417142D02*
X107246914Y-96388571D01*
X107246914Y-96388571D02*
X107218342Y-96360000D01*
X107218342Y-96360000D02*
X107189771Y-96302857D01*
X107189771Y-95731428D02*
X107189771Y-95674285D01*
X107189771Y-95674285D02*
X107218342Y-95617142D01*
X107218342Y-95617142D02*
X107246914Y-95588571D01*
X107246914Y-95588571D02*
X107304057Y-95559999D01*
X107304057Y-95559999D02*
X107418342Y-95531428D01*
X107418342Y-95531428D02*
X107561200Y-95531428D01*
X107561200Y-95531428D02*
X107675485Y-95559999D01*
X107675485Y-95559999D02*
X107732628Y-95588571D01*
X107732628Y-95588571D02*
X107761200Y-95617142D01*
X107761200Y-95617142D02*
X107789771Y-95674285D01*
X107789771Y-95674285D02*
X107789771Y-95731428D01*
X107789771Y-95731428D02*
X107761200Y-95788571D01*
X107761200Y-95788571D02*
X107732628Y-95817142D01*
X107732628Y-95817142D02*
X107675485Y-95845713D01*
X107675485Y-95845713D02*
X107561200Y-95874285D01*
X107561200Y-95874285D02*
X107418342Y-95874285D01*
X107418342Y-95874285D02*
X107304057Y-95845713D01*
X107304057Y-95845713D02*
X107246914Y-95817142D01*
X107246914Y-95817142D02*
X107218342Y-95788571D01*
X107218342Y-95788571D02*
X107189771Y-95731428D01*
X107789771Y-94817141D02*
X107389771Y-94817141D01*
X107446914Y-94817141D02*
X107418342Y-94788570D01*
X107418342Y-94788570D02*
X107389771Y-94731427D01*
X107389771Y-94731427D02*
X107389771Y-94645713D01*
X107389771Y-94645713D02*
X107418342Y-94588570D01*
X107418342Y-94588570D02*
X107475485Y-94559999D01*
X107475485Y-94559999D02*
X107789771Y-94559999D01*
X107475485Y-94559999D02*
X107418342Y-94531427D01*
X107418342Y-94531427D02*
X107389771Y-94474284D01*
X107389771Y-94474284D02*
X107389771Y-94388570D01*
X107389771Y-94388570D02*
X107418342Y-94331427D01*
X107418342Y-94331427D02*
X107475485Y-94302856D01*
X107475485Y-94302856D02*
X107789771Y-94302856D01*
X107789771Y-94017141D02*
X107389771Y-94017141D01*
X107446914Y-94017141D02*
X107418342Y-93988570D01*
X107418342Y-93988570D02*
X107389771Y-93931427D01*
X107389771Y-93931427D02*
X107389771Y-93845713D01*
X107389771Y-93845713D02*
X107418342Y-93788570D01*
X107418342Y-93788570D02*
X107475485Y-93759999D01*
X107475485Y-93759999D02*
X107789771Y-93759999D01*
X107475485Y-93759999D02*
X107418342Y-93731427D01*
X107418342Y-93731427D02*
X107389771Y-93674284D01*
X107389771Y-93674284D02*
X107389771Y-93588570D01*
X107389771Y-93588570D02*
X107418342Y-93531427D01*
X107418342Y-93531427D02*
X107475485Y-93502856D01*
X107475485Y-93502856D02*
X107789771Y-93502856D01*
X98580000Y-93930000D02*
X106556420Y-93930000D01*
X106556420Y-96680000D02*
X98580000Y-96680000D01*
X105970000Y-93930000D02*
X105970000Y-96680000D01*
X105970000Y-93930000D02*
X106431749Y-94817011D01*
X105970000Y-93930000D02*
X105508251Y-94817011D01*
X105970000Y-96680000D02*
X105508251Y-95792989D01*
X105970000Y-96680000D02*
X106431749Y-95792989D01*
X90333334Y-67304819D02*
X90952381Y-67304819D01*
X90952381Y-67304819D02*
X90619048Y-67685771D01*
X90619048Y-67685771D02*
X90761905Y-67685771D01*
X90761905Y-67685771D02*
X90857143Y-67733390D01*
X90857143Y-67733390D02*
X90904762Y-67781009D01*
X90904762Y-67781009D02*
X90952381Y-67876247D01*
X90952381Y-67876247D02*
X90952381Y-68114342D01*
X90952381Y-68114342D02*
X90904762Y-68209580D01*
X90904762Y-68209580D02*
X90857143Y-68257200D01*
X90857143Y-68257200D02*
X90761905Y-68304819D01*
X90761905Y-68304819D02*
X90476191Y-68304819D01*
X90476191Y-68304819D02*
X90380953Y-68257200D01*
X90380953Y-68257200D02*
X90333334Y-68209580D01*
X91571429Y-67304819D02*
X91666667Y-67304819D01*
X91666667Y-67304819D02*
X91761905Y-67352438D01*
X91761905Y-67352438D02*
X91809524Y-67400057D01*
X91809524Y-67400057D02*
X91857143Y-67495295D01*
X91857143Y-67495295D02*
X91904762Y-67685771D01*
X91904762Y-67685771D02*
X91904762Y-67923866D01*
X91904762Y-67923866D02*
X91857143Y-68114342D01*
X91857143Y-68114342D02*
X91809524Y-68209580D01*
X91809524Y-68209580D02*
X91761905Y-68257200D01*
X91761905Y-68257200D02*
X91666667Y-68304819D01*
X91666667Y-68304819D02*
X91571429Y-68304819D01*
X91571429Y-68304819D02*
X91476191Y-68257200D01*
X91476191Y-68257200D02*
X91428572Y-68209580D01*
X91428572Y-68209580D02*
X91380953Y-68114342D01*
X91380953Y-68114342D02*
X91333334Y-67923866D01*
X91333334Y-67923866D02*
X91333334Y-67685771D01*
X91333334Y-67685771D02*
X91380953Y-67495295D01*
X91380953Y-67495295D02*
X91428572Y-67400057D01*
X91428572Y-67400057D02*
X91476191Y-67352438D01*
X91476191Y-67352438D02*
X91571429Y-67304819D01*
X92333334Y-68209580D02*
X92380953Y-68257200D01*
X92380953Y-68257200D02*
X92333334Y-68304819D01*
X92333334Y-68304819D02*
X92285715Y-68257200D01*
X92285715Y-68257200D02*
X92333334Y-68209580D01*
X92333334Y-68209580D02*
X92333334Y-68304819D01*
X93000000Y-67304819D02*
X93095238Y-67304819D01*
X93095238Y-67304819D02*
X93190476Y-67352438D01*
X93190476Y-67352438D02*
X93238095Y-67400057D01*
X93238095Y-67400057D02*
X93285714Y-67495295D01*
X93285714Y-67495295D02*
X93333333Y-67685771D01*
X93333333Y-67685771D02*
X93333333Y-67923866D01*
X93333333Y-67923866D02*
X93285714Y-68114342D01*
X93285714Y-68114342D02*
X93238095Y-68209580D01*
X93238095Y-68209580D02*
X93190476Y-68257200D01*
X93190476Y-68257200D02*
X93095238Y-68304819D01*
X93095238Y-68304819D02*
X93000000Y-68304819D01*
X93000000Y-68304819D02*
X92904762Y-68257200D01*
X92904762Y-68257200D02*
X92857143Y-68209580D01*
X92857143Y-68209580D02*
X92809524Y-68114342D01*
X92809524Y-68114342D02*
X92761905Y-67923866D01*
X92761905Y-67923866D02*
X92761905Y-67685771D01*
X92761905Y-67685771D02*
X92809524Y-67495295D01*
X92809524Y-67495295D02*
X92857143Y-67400057D01*
X92857143Y-67400057D02*
X92904762Y-67352438D01*
X92904762Y-67352438D02*
X93000000Y-67304819D01*
X93952381Y-67304819D02*
X94047619Y-67304819D01*
X94047619Y-67304819D02*
X94142857Y-67352438D01*
X94142857Y-67352438D02*
X94190476Y-67400057D01*
X94190476Y-67400057D02*
X94238095Y-67495295D01*
X94238095Y-67495295D02*
X94285714Y-67685771D01*
X94285714Y-67685771D02*
X94285714Y-67923866D01*
X94285714Y-67923866D02*
X94238095Y-68114342D01*
X94238095Y-68114342D02*
X94190476Y-68209580D01*
X94190476Y-68209580D02*
X94142857Y-68257200D01*
X94142857Y-68257200D02*
X94047619Y-68304819D01*
X94047619Y-68304819D02*
X93952381Y-68304819D01*
X93952381Y-68304819D02*
X93857143Y-68257200D01*
X93857143Y-68257200D02*
X93809524Y-68209580D01*
X93809524Y-68209580D02*
X93761905Y-68114342D01*
X93761905Y-68114342D02*
X93714286Y-67923866D01*
X93714286Y-67923866D02*
X93714286Y-67685771D01*
X93714286Y-67685771D02*
X93761905Y-67495295D01*
X93761905Y-67495295D02*
X93809524Y-67400057D01*
X93809524Y-67400057D02*
X93857143Y-67352438D01*
X93857143Y-67352438D02*
X93952381Y-67304819D01*
X94904762Y-67304819D02*
X95000000Y-67304819D01*
X95000000Y-67304819D02*
X95095238Y-67352438D01*
X95095238Y-67352438D02*
X95142857Y-67400057D01*
X95142857Y-67400057D02*
X95190476Y-67495295D01*
X95190476Y-67495295D02*
X95238095Y-67685771D01*
X95238095Y-67685771D02*
X95238095Y-67923866D01*
X95238095Y-67923866D02*
X95190476Y-68114342D01*
X95190476Y-68114342D02*
X95142857Y-68209580D01*
X95142857Y-68209580D02*
X95095238Y-68257200D01*
X95095238Y-68257200D02*
X95000000Y-68304819D01*
X95000000Y-68304819D02*
X94904762Y-68304819D01*
X94904762Y-68304819D02*
X94809524Y-68257200D01*
X94809524Y-68257200D02*
X94761905Y-68209580D01*
X94761905Y-68209580D02*
X94714286Y-68114342D01*
X94714286Y-68114342D02*
X94666667Y-67923866D01*
X94666667Y-67923866D02*
X94666667Y-67685771D01*
X94666667Y-67685771D02*
X94714286Y-67495295D01*
X94714286Y-67495295D02*
X94761905Y-67400057D01*
X94761905Y-67400057D02*
X94809524Y-67352438D01*
X94809524Y-67352438D02*
X94904762Y-67304819D01*
X95857143Y-67304819D02*
X95952381Y-67304819D01*
X95952381Y-67304819D02*
X96047619Y-67352438D01*
X96047619Y-67352438D02*
X96095238Y-67400057D01*
X96095238Y-67400057D02*
X96142857Y-67495295D01*
X96142857Y-67495295D02*
X96190476Y-67685771D01*
X96190476Y-67685771D02*
X96190476Y-67923866D01*
X96190476Y-67923866D02*
X96142857Y-68114342D01*
X96142857Y-68114342D02*
X96095238Y-68209580D01*
X96095238Y-68209580D02*
X96047619Y-68257200D01*
X96047619Y-68257200D02*
X95952381Y-68304819D01*
X95952381Y-68304819D02*
X95857143Y-68304819D01*
X95857143Y-68304819D02*
X95761905Y-68257200D01*
X95761905Y-68257200D02*
X95714286Y-68209580D01*
X95714286Y-68209580D02*
X95666667Y-68114342D01*
X95666667Y-68114342D02*
X95619048Y-67923866D01*
X95619048Y-67923866D02*
X95619048Y-67685771D01*
X95619048Y-67685771D02*
X95666667Y-67495295D01*
X95666667Y-67495295D02*
X95714286Y-67400057D01*
X95714286Y-67400057D02*
X95761905Y-67352438D01*
X95761905Y-67352438D02*
X95857143Y-67304819D01*
X97380953Y-68304819D02*
X97380953Y-67638152D01*
X97380953Y-67733390D02*
X97428572Y-67685771D01*
X97428572Y-67685771D02*
X97523810Y-67638152D01*
X97523810Y-67638152D02*
X97666667Y-67638152D01*
X97666667Y-67638152D02*
X97761905Y-67685771D01*
X97761905Y-67685771D02*
X97809524Y-67781009D01*
X97809524Y-67781009D02*
X97809524Y-68304819D01*
X97809524Y-67781009D02*
X97857143Y-67685771D01*
X97857143Y-67685771D02*
X97952381Y-67638152D01*
X97952381Y-67638152D02*
X98095238Y-67638152D01*
X98095238Y-67638152D02*
X98190477Y-67685771D01*
X98190477Y-67685771D02*
X98238096Y-67781009D01*
X98238096Y-67781009D02*
X98238096Y-68304819D01*
X98714286Y-68304819D02*
X98714286Y-67638152D01*
X98714286Y-67733390D02*
X98761905Y-67685771D01*
X98761905Y-67685771D02*
X98857143Y-67638152D01*
X98857143Y-67638152D02*
X99000000Y-67638152D01*
X99000000Y-67638152D02*
X99095238Y-67685771D01*
X99095238Y-67685771D02*
X99142857Y-67781009D01*
X99142857Y-67781009D02*
X99142857Y-68304819D01*
X99142857Y-67781009D02*
X99190476Y-67685771D01*
X99190476Y-67685771D02*
X99285714Y-67638152D01*
X99285714Y-67638152D02*
X99428571Y-67638152D01*
X99428571Y-67638152D02*
X99523810Y-67685771D01*
X99523810Y-67685771D02*
X99571429Y-67781009D01*
X99571429Y-67781009D02*
X99571429Y-68304819D01*
X80000000Y-70500000D02*
X80000000Y-68413580D01*
X110000000Y-68413580D02*
X110000000Y-70500000D01*
X80000000Y-69000000D02*
X110000000Y-69000000D01*
X80000000Y-69000000D02*
X81126504Y-68413579D01*
X80000000Y-69000000D02*
X81126504Y-69586421D01*
X110000000Y-69000000D02*
X108873496Y-69586421D01*
X110000000Y-69000000D02*
X108873496Y-68413579D01*
X91014284Y-91176914D02*
X91042856Y-91148342D01*
X91042856Y-91148342D02*
X91099999Y-91119771D01*
X91099999Y-91119771D02*
X91242856Y-91119771D01*
X91242856Y-91119771D02*
X91299999Y-91148342D01*
X91299999Y-91148342D02*
X91328570Y-91176914D01*
X91328570Y-91176914D02*
X91357141Y-91234057D01*
X91357141Y-91234057D02*
X91357141Y-91291200D01*
X91357141Y-91291200D02*
X91328570Y-91376914D01*
X91328570Y-91376914D02*
X90985713Y-91719771D01*
X90985713Y-91719771D02*
X91357141Y-91719771D01*
X91614285Y-91662628D02*
X91642856Y-91691200D01*
X91642856Y-91691200D02*
X91614285Y-91719771D01*
X91614285Y-91719771D02*
X91585713Y-91691200D01*
X91585713Y-91691200D02*
X91614285Y-91662628D01*
X91614285Y-91662628D02*
X91614285Y-91719771D01*
X91871427Y-91176914D02*
X91899999Y-91148342D01*
X91899999Y-91148342D02*
X91957142Y-91119771D01*
X91957142Y-91119771D02*
X92099999Y-91119771D01*
X92099999Y-91119771D02*
X92157142Y-91148342D01*
X92157142Y-91148342D02*
X92185713Y-91176914D01*
X92185713Y-91176914D02*
X92214284Y-91234057D01*
X92214284Y-91234057D02*
X92214284Y-91291200D01*
X92214284Y-91291200D02*
X92185713Y-91376914D01*
X92185713Y-91376914D02*
X91842856Y-91719771D01*
X91842856Y-91719771D02*
X92214284Y-91719771D01*
X92585713Y-91119771D02*
X92642856Y-91119771D01*
X92642856Y-91119771D02*
X92699999Y-91148342D01*
X92699999Y-91148342D02*
X92728571Y-91176914D01*
X92728571Y-91176914D02*
X92757142Y-91234057D01*
X92757142Y-91234057D02*
X92785713Y-91348342D01*
X92785713Y-91348342D02*
X92785713Y-91491200D01*
X92785713Y-91491200D02*
X92757142Y-91605485D01*
X92757142Y-91605485D02*
X92728571Y-91662628D01*
X92728571Y-91662628D02*
X92699999Y-91691200D01*
X92699999Y-91691200D02*
X92642856Y-91719771D01*
X92642856Y-91719771D02*
X92585713Y-91719771D01*
X92585713Y-91719771D02*
X92528571Y-91691200D01*
X92528571Y-91691200D02*
X92499999Y-91662628D01*
X92499999Y-91662628D02*
X92471428Y-91605485D01*
X92471428Y-91605485D02*
X92442856Y-91491200D01*
X92442856Y-91491200D02*
X92442856Y-91348342D01*
X92442856Y-91348342D02*
X92471428Y-91234057D01*
X92471428Y-91234057D02*
X92499999Y-91176914D01*
X92499999Y-91176914D02*
X92528571Y-91148342D01*
X92528571Y-91148342D02*
X92585713Y-91119771D01*
X93157142Y-91119771D02*
X93214285Y-91119771D01*
X93214285Y-91119771D02*
X93271428Y-91148342D01*
X93271428Y-91148342D02*
X93300000Y-91176914D01*
X93300000Y-91176914D02*
X93328571Y-91234057D01*
X93328571Y-91234057D02*
X93357142Y-91348342D01*
X93357142Y-91348342D02*
X93357142Y-91491200D01*
X93357142Y-91491200D02*
X93328571Y-91605485D01*
X93328571Y-91605485D02*
X93300000Y-91662628D01*
X93300000Y-91662628D02*
X93271428Y-91691200D01*
X93271428Y-91691200D02*
X93214285Y-91719771D01*
X93214285Y-91719771D02*
X93157142Y-91719771D01*
X93157142Y-91719771D02*
X93100000Y-91691200D01*
X93100000Y-91691200D02*
X93071428Y-91662628D01*
X93071428Y-91662628D02*
X93042857Y-91605485D01*
X93042857Y-91605485D02*
X93014285Y-91491200D01*
X93014285Y-91491200D02*
X93014285Y-91348342D01*
X93014285Y-91348342D02*
X93042857Y-91234057D01*
X93042857Y-91234057D02*
X93071428Y-91176914D01*
X93071428Y-91176914D02*
X93100000Y-91148342D01*
X93100000Y-91148342D02*
X93157142Y-91119771D01*
X93728571Y-91119771D02*
X93785714Y-91119771D01*
X93785714Y-91119771D02*
X93842857Y-91148342D01*
X93842857Y-91148342D02*
X93871429Y-91176914D01*
X93871429Y-91176914D02*
X93900000Y-91234057D01*
X93900000Y-91234057D02*
X93928571Y-91348342D01*
X93928571Y-91348342D02*
X93928571Y-91491200D01*
X93928571Y-91491200D02*
X93900000Y-91605485D01*
X93900000Y-91605485D02*
X93871429Y-91662628D01*
X93871429Y-91662628D02*
X93842857Y-91691200D01*
X93842857Y-91691200D02*
X93785714Y-91719771D01*
X93785714Y-91719771D02*
X93728571Y-91719771D01*
X93728571Y-91719771D02*
X93671429Y-91691200D01*
X93671429Y-91691200D02*
X93642857Y-91662628D01*
X93642857Y-91662628D02*
X93614286Y-91605485D01*
X93614286Y-91605485D02*
X93585714Y-91491200D01*
X93585714Y-91491200D02*
X93585714Y-91348342D01*
X93585714Y-91348342D02*
X93614286Y-91234057D01*
X93614286Y-91234057D02*
X93642857Y-91176914D01*
X93642857Y-91176914D02*
X93671429Y-91148342D01*
X93671429Y-91148342D02*
X93728571Y-91119771D01*
X94642858Y-91719771D02*
X94642858Y-91319771D01*
X94642858Y-91376914D02*
X94671429Y-91348342D01*
X94671429Y-91348342D02*
X94728572Y-91319771D01*
X94728572Y-91319771D02*
X94814286Y-91319771D01*
X94814286Y-91319771D02*
X94871429Y-91348342D01*
X94871429Y-91348342D02*
X94900001Y-91405485D01*
X94900001Y-91405485D02*
X94900001Y-91719771D01*
X94900001Y-91405485D02*
X94928572Y-91348342D01*
X94928572Y-91348342D02*
X94985715Y-91319771D01*
X94985715Y-91319771D02*
X95071429Y-91319771D01*
X95071429Y-91319771D02*
X95128572Y-91348342D01*
X95128572Y-91348342D02*
X95157143Y-91405485D01*
X95157143Y-91405485D02*
X95157143Y-91719771D01*
X95442858Y-91719771D02*
X95442858Y-91319771D01*
X95442858Y-91376914D02*
X95471429Y-91348342D01*
X95471429Y-91348342D02*
X95528572Y-91319771D01*
X95528572Y-91319771D02*
X95614286Y-91319771D01*
X95614286Y-91319771D02*
X95671429Y-91348342D01*
X95671429Y-91348342D02*
X95700001Y-91405485D01*
X95700001Y-91405485D02*
X95700001Y-91719771D01*
X95700001Y-91405485D02*
X95728572Y-91348342D01*
X95728572Y-91348342D02*
X95785715Y-91319771D01*
X95785715Y-91319771D02*
X95871429Y-91319771D01*
X95871429Y-91319771D02*
X95928572Y-91348342D01*
X95928572Y-91348342D02*
X95957143Y-91405485D01*
X95957143Y-91405485D02*
X95957143Y-91719771D01*
X92420000Y-93760000D02*
X92420000Y-92323580D01*
X94620000Y-92323580D02*
X94620000Y-93760000D01*
X92420000Y-92910000D02*
X94620000Y-92910000D01*
X92420000Y-92910000D02*
X92863505Y-92679126D01*
X92420000Y-92910000D02*
X92863505Y-93140874D01*
X94620000Y-92910000D02*
X94176495Y-93140874D01*
X94620000Y-92910000D02*
X94176495Y-92679126D01*
X113900057Y-88619046D02*
X113852438Y-88571427D01*
X113852438Y-88571427D02*
X113804819Y-88476189D01*
X113804819Y-88476189D02*
X113804819Y-88238094D01*
X113804819Y-88238094D02*
X113852438Y-88142856D01*
X113852438Y-88142856D02*
X113900057Y-88095237D01*
X113900057Y-88095237D02*
X113995295Y-88047618D01*
X113995295Y-88047618D02*
X114090533Y-88047618D01*
X114090533Y-88047618D02*
X114233390Y-88095237D01*
X114233390Y-88095237D02*
X114804819Y-88666665D01*
X114804819Y-88666665D02*
X114804819Y-88047618D01*
X113804819Y-87190475D02*
X113804819Y-87380951D01*
X113804819Y-87380951D02*
X113852438Y-87476189D01*
X113852438Y-87476189D02*
X113900057Y-87523808D01*
X113900057Y-87523808D02*
X114042914Y-87619046D01*
X114042914Y-87619046D02*
X114233390Y-87666665D01*
X114233390Y-87666665D02*
X114614342Y-87666665D01*
X114614342Y-87666665D02*
X114709580Y-87619046D01*
X114709580Y-87619046D02*
X114757200Y-87571427D01*
X114757200Y-87571427D02*
X114804819Y-87476189D01*
X114804819Y-87476189D02*
X114804819Y-87285713D01*
X114804819Y-87285713D02*
X114757200Y-87190475D01*
X114757200Y-87190475D02*
X114709580Y-87142856D01*
X114709580Y-87142856D02*
X114614342Y-87095237D01*
X114614342Y-87095237D02*
X114376247Y-87095237D01*
X114376247Y-87095237D02*
X114281009Y-87142856D01*
X114281009Y-87142856D02*
X114233390Y-87190475D01*
X114233390Y-87190475D02*
X114185771Y-87285713D01*
X114185771Y-87285713D02*
X114185771Y-87476189D01*
X114185771Y-87476189D02*
X114233390Y-87571427D01*
X114233390Y-87571427D02*
X114281009Y-87619046D01*
X114281009Y-87619046D02*
X114376247Y-87666665D01*
X114709580Y-86666665D02*
X114757200Y-86619046D01*
X114757200Y-86619046D02*
X114804819Y-86666665D01*
X114804819Y-86666665D02*
X114757200Y-86714284D01*
X114757200Y-86714284D02*
X114709580Y-86666665D01*
X114709580Y-86666665D02*
X114804819Y-86666665D01*
X113804819Y-85999999D02*
X113804819Y-85904761D01*
X113804819Y-85904761D02*
X113852438Y-85809523D01*
X113852438Y-85809523D02*
X113900057Y-85761904D01*
X113900057Y-85761904D02*
X113995295Y-85714285D01*
X113995295Y-85714285D02*
X114185771Y-85666666D01*
X114185771Y-85666666D02*
X114423866Y-85666666D01*
X114423866Y-85666666D02*
X114614342Y-85714285D01*
X114614342Y-85714285D02*
X114709580Y-85761904D01*
X114709580Y-85761904D02*
X114757200Y-85809523D01*
X114757200Y-85809523D02*
X114804819Y-85904761D01*
X114804819Y-85904761D02*
X114804819Y-85999999D01*
X114804819Y-85999999D02*
X114757200Y-86095237D01*
X114757200Y-86095237D02*
X114709580Y-86142856D01*
X114709580Y-86142856D02*
X114614342Y-86190475D01*
X114614342Y-86190475D02*
X114423866Y-86238094D01*
X114423866Y-86238094D02*
X114185771Y-86238094D01*
X114185771Y-86238094D02*
X113995295Y-86190475D01*
X113995295Y-86190475D02*
X113900057Y-86142856D01*
X113900057Y-86142856D02*
X113852438Y-86095237D01*
X113852438Y-86095237D02*
X113804819Y-85999999D01*
X113804819Y-85047618D02*
X113804819Y-84952380D01*
X113804819Y-84952380D02*
X113852438Y-84857142D01*
X113852438Y-84857142D02*
X113900057Y-84809523D01*
X113900057Y-84809523D02*
X113995295Y-84761904D01*
X113995295Y-84761904D02*
X114185771Y-84714285D01*
X114185771Y-84714285D02*
X114423866Y-84714285D01*
X114423866Y-84714285D02*
X114614342Y-84761904D01*
X114614342Y-84761904D02*
X114709580Y-84809523D01*
X114709580Y-84809523D02*
X114757200Y-84857142D01*
X114757200Y-84857142D02*
X114804819Y-84952380D01*
X114804819Y-84952380D02*
X114804819Y-85047618D01*
X114804819Y-85047618D02*
X114757200Y-85142856D01*
X114757200Y-85142856D02*
X114709580Y-85190475D01*
X114709580Y-85190475D02*
X114614342Y-85238094D01*
X114614342Y-85238094D02*
X114423866Y-85285713D01*
X114423866Y-85285713D02*
X114185771Y-85285713D01*
X114185771Y-85285713D02*
X113995295Y-85238094D01*
X113995295Y-85238094D02*
X113900057Y-85190475D01*
X113900057Y-85190475D02*
X113852438Y-85142856D01*
X113852438Y-85142856D02*
X113804819Y-85047618D01*
X113804819Y-84095237D02*
X113804819Y-83999999D01*
X113804819Y-83999999D02*
X113852438Y-83904761D01*
X113852438Y-83904761D02*
X113900057Y-83857142D01*
X113900057Y-83857142D02*
X113995295Y-83809523D01*
X113995295Y-83809523D02*
X114185771Y-83761904D01*
X114185771Y-83761904D02*
X114423866Y-83761904D01*
X114423866Y-83761904D02*
X114614342Y-83809523D01*
X114614342Y-83809523D02*
X114709580Y-83857142D01*
X114709580Y-83857142D02*
X114757200Y-83904761D01*
X114757200Y-83904761D02*
X114804819Y-83999999D01*
X114804819Y-83999999D02*
X114804819Y-84095237D01*
X114804819Y-84095237D02*
X114757200Y-84190475D01*
X114757200Y-84190475D02*
X114709580Y-84238094D01*
X114709580Y-84238094D02*
X114614342Y-84285713D01*
X114614342Y-84285713D02*
X114423866Y-84333332D01*
X114423866Y-84333332D02*
X114185771Y-84333332D01*
X114185771Y-84333332D02*
X113995295Y-84285713D01*
X113995295Y-84285713D02*
X113900057Y-84238094D01*
X113900057Y-84238094D02*
X113852438Y-84190475D01*
X113852438Y-84190475D02*
X113804819Y-84095237D01*
X113804819Y-83142856D02*
X113804819Y-83047618D01*
X113804819Y-83047618D02*
X113852438Y-82952380D01*
X113852438Y-82952380D02*
X113900057Y-82904761D01*
X113900057Y-82904761D02*
X113995295Y-82857142D01*
X113995295Y-82857142D02*
X114185771Y-82809523D01*
X114185771Y-82809523D02*
X114423866Y-82809523D01*
X114423866Y-82809523D02*
X114614342Y-82857142D01*
X114614342Y-82857142D02*
X114709580Y-82904761D01*
X114709580Y-82904761D02*
X114757200Y-82952380D01*
X114757200Y-82952380D02*
X114804819Y-83047618D01*
X114804819Y-83047618D02*
X114804819Y-83142856D01*
X114804819Y-83142856D02*
X114757200Y-83238094D01*
X114757200Y-83238094D02*
X114709580Y-83285713D01*
X114709580Y-83285713D02*
X114614342Y-83333332D01*
X114614342Y-83333332D02*
X114423866Y-83380951D01*
X114423866Y-83380951D02*
X114185771Y-83380951D01*
X114185771Y-83380951D02*
X113995295Y-83333332D01*
X113995295Y-83333332D02*
X113900057Y-83285713D01*
X113900057Y-83285713D02*
X113852438Y-83238094D01*
X113852438Y-83238094D02*
X113804819Y-83142856D01*
X114804819Y-81619046D02*
X114138152Y-81619046D01*
X114233390Y-81619046D02*
X114185771Y-81571427D01*
X114185771Y-81571427D02*
X114138152Y-81476189D01*
X114138152Y-81476189D02*
X114138152Y-81333332D01*
X114138152Y-81333332D02*
X114185771Y-81238094D01*
X114185771Y-81238094D02*
X114281009Y-81190475D01*
X114281009Y-81190475D02*
X114804819Y-81190475D01*
X114281009Y-81190475D02*
X114185771Y-81142856D01*
X114185771Y-81142856D02*
X114138152Y-81047618D01*
X114138152Y-81047618D02*
X114138152Y-80904761D01*
X114138152Y-80904761D02*
X114185771Y-80809522D01*
X114185771Y-80809522D02*
X114281009Y-80761903D01*
X114281009Y-80761903D02*
X114804819Y-80761903D01*
X114804819Y-80285713D02*
X114138152Y-80285713D01*
X114233390Y-80285713D02*
X114185771Y-80238094D01*
X114185771Y-80238094D02*
X114138152Y-80142856D01*
X114138152Y-80142856D02*
X114138152Y-79999999D01*
X114138152Y-79999999D02*
X114185771Y-79904761D01*
X114185771Y-79904761D02*
X114281009Y-79857142D01*
X114281009Y-79857142D02*
X114804819Y-79857142D01*
X114281009Y-79857142D02*
X114185771Y-79809523D01*
X114185771Y-79809523D02*
X114138152Y-79714285D01*
X114138152Y-79714285D02*
X114138152Y-79571428D01*
X114138152Y-79571428D02*
X114185771Y-79476189D01*
X114185771Y-79476189D02*
X114281009Y-79428570D01*
X114281009Y-79428570D02*
X114804819Y-79428570D01*
X110500000Y-71000000D02*
X116086420Y-71000000D01*
X116086420Y-97000000D02*
X103500000Y-97000000D01*
X115500000Y-71000000D02*
X115500000Y-97000000D01*
X115500000Y-71000000D02*
X116086421Y-72126504D01*
X115500000Y-71000000D02*
X114913579Y-72126504D01*
X115500000Y-97000000D02*
X114913579Y-95873496D01*
X115500000Y-97000000D02*
X116086421Y-95873496D01*
M02*
