G04 #@! TF.GenerationSoftware,KiCad,Pcbnew,9.0.4*
G04 #@! TF.CreationDate,2025-08-28T22:57:06-04:00*
G04 #@! TF.ProjectId,PowerSupply,506f7765-7253-4757-9070-6c792e6b6963,rev?*
G04 #@! TF.SameCoordinates,Original*
G04 #@! TF.FileFunction,Copper,L1,Top*
G04 #@! TF.FilePolarity,Positive*
%FSLAX46Y46*%
G04 Gerber Fmt 4.6, Leading zero omitted, Abs format (unit mm)*
G04 Created by KiCad (PCBNEW 9.0.4) date 2025-08-28 22:57:06*
%MOMM*%
%LPD*%
G01*
G04 APERTURE LIST*
G04 Aperture macros list*
%AMRoundRect*
0 Rectangle with rounded corners*
0 $1 Rounding radius*
0 $2 $3 $4 $5 $6 $7 $8 $9 X,Y pos of 4 corners*
0 Add a 4 corners polygon primitive as box body*
4,1,4,$2,$3,$4,$5,$6,$7,$8,$9,$2,$3,0*
0 Add four circle primitives for the rounded corners*
1,1,$1+$1,$2,$3*
1,1,$1+$1,$4,$5*
1,1,$1+$1,$6,$7*
1,1,$1+$1,$8,$9*
0 Add four rect primitives between the rounded corners*
20,1,$1+$1,$2,$3,$4,$5,0*
20,1,$1+$1,$4,$5,$6,$7,0*
20,1,$1+$1,$6,$7,$8,$9,0*
20,1,$1+$1,$8,$9,$2,$3,0*%
G04 Aperture macros list end*
G04 #@! TA.AperFunction,Conductor*
%ADD10C,0.000000*%
G04 #@! TD*
G04 #@! TA.AperFunction,Conductor*
%ADD11C,0.200000*%
G04 #@! TD*
G04 #@! TA.AperFunction,Conductor*
%ADD12C,0.300000*%
G04 #@! TD*
G04 #@! TA.AperFunction,SMDPad,CuDef*
%ADD13RoundRect,0.250000X1.400000X1.000000X-1.400000X1.000000X-1.400000X-1.000000X1.400000X-1.000000X0*%
G04 #@! TD*
G04 #@! TA.AperFunction,SMDPad,CuDef*
%ADD14RoundRect,0.250000X-0.412500X-0.650000X0.412500X-0.650000X0.412500X0.650000X-0.412500X0.650000X0*%
G04 #@! TD*
G04 #@! TA.AperFunction,SMDPad,CuDef*
%ADD15RoundRect,0.250000X-0.350000X-0.450000X0.350000X-0.450000X0.350000X0.450000X-0.350000X0.450000X0*%
G04 #@! TD*
G04 #@! TA.AperFunction,SMDPad,CuDef*
%ADD16RoundRect,0.250000X0.625000X-0.400000X0.625000X0.400000X-0.625000X0.400000X-0.625000X-0.400000X0*%
G04 #@! TD*
G04 #@! TA.AperFunction,SMDPad,CuDef*
%ADD17RoundRect,0.155000X0.212500X0.155000X-0.212500X0.155000X-0.212500X-0.155000X0.212500X-0.155000X0*%
G04 #@! TD*
G04 #@! TA.AperFunction,SMDPad,CuDef*
%ADD18RoundRect,0.125000X-0.600000X-0.125000X0.600000X-0.125000X0.600000X0.125000X-0.600000X0.125000X0*%
G04 #@! TD*
G04 #@! TA.AperFunction,HeatsinkPad*
%ADD19C,0.600000*%
G04 #@! TD*
G04 #@! TA.AperFunction,HeatsinkPad*
%ADD20R,1.570000X1.890000*%
G04 #@! TD*
G04 #@! TA.AperFunction,SMDPad,CuDef*
%ADD21R,0.700000X0.510000*%
G04 #@! TD*
G04 #@! TA.AperFunction,SMDPad,CuDef*
%ADD22RoundRect,0.250000X0.350000X0.450000X-0.350000X0.450000X-0.350000X-0.450000X0.350000X-0.450000X0*%
G04 #@! TD*
G04 #@! TA.AperFunction,SMDPad,CuDef*
%ADD23RoundRect,0.250000X0.412500X1.100000X-0.412500X1.100000X-0.412500X-1.100000X0.412500X-1.100000X0*%
G04 #@! TD*
G04 #@! TA.AperFunction,SMDPad,CuDef*
%ADD24RoundRect,0.155000X-0.212500X-0.155000X0.212500X-0.155000X0.212500X0.155000X-0.212500X0.155000X0*%
G04 #@! TD*
G04 #@! TA.AperFunction,SMDPad,CuDef*
%ADD25R,1.800000X3.600000*%
G04 #@! TD*
G04 #@! TA.AperFunction,ViaPad*
%ADD26C,0.800000*%
G04 #@! TD*
G04 #@! TA.AperFunction,Conductor*
%ADD27C,0.800000*%
G04 #@! TD*
G04 #@! TA.AperFunction,Conductor*
%ADD28C,0.250000*%
G04 #@! TD*
G04 #@! TA.AperFunction,Conductor*
%ADD29C,0.400000*%
G04 #@! TD*
G04 APERTURE END LIST*
D10*
G04 #@! TA.AperFunction,Conductor*
G36*
X97840000Y-83350000D02*
G01*
X93570000Y-83280000D01*
X93960000Y-82720000D01*
X97140000Y-82620000D01*
X97840000Y-83350000D01*
G37*
G04 #@! TD.AperFunction*
D11*
X82000000Y-81580061D02*
X89750000Y-89430061D01*
X89750000Y-92700000D01*
X88450000Y-92700000D01*
X88450000Y-90600000D01*
X81010000Y-83265532D01*
X81010000Y-78700000D01*
X82000000Y-78700000D01*
X82000000Y-81580061D01*
G04 #@! TA.AperFunction,Conductor*
G36*
X82000000Y-81580061D02*
G01*
X89750000Y-89430061D01*
X89750000Y-92700000D01*
X88450000Y-92700000D01*
X88450000Y-90600000D01*
X81010000Y-83265532D01*
X81010000Y-78700000D01*
X82000000Y-78700000D01*
X82000000Y-81580061D01*
G37*
G04 #@! TD.AperFunction*
D12*
X107090000Y-80760000D02*
X106350000Y-81540000D01*
D11*
X108300000Y-75100000D02*
X108500000Y-76400000D01*
D10*
G04 #@! TA.AperFunction,Conductor*
G36*
X90770000Y-96680000D02*
G01*
X87350000Y-96680000D01*
X87350000Y-91540000D01*
X90770000Y-91540000D01*
X90770000Y-96680000D01*
G37*
G04 #@! TD.AperFunction*
D11*
X109440000Y-81500000D02*
X108000000Y-81500000D01*
X107950000Y-81000000D01*
X105800000Y-81000000D01*
X105800000Y-81520000D01*
X104570000Y-81510000D01*
X104570000Y-80980000D01*
X105230000Y-80420000D01*
X107443749Y-80400000D01*
X107950000Y-79950000D01*
X107950000Y-77350000D01*
X107730000Y-77081112D01*
X107730000Y-76000000D01*
X109440000Y-76000000D01*
X109440000Y-81500000D01*
G04 #@! TA.AperFunction,Conductor*
G36*
X109440000Y-81500000D02*
G01*
X108000000Y-81500000D01*
X107950000Y-81000000D01*
X105800000Y-81000000D01*
X105800000Y-81520000D01*
X104570000Y-81510000D01*
X104570000Y-80980000D01*
X105230000Y-80420000D01*
X107443749Y-80400000D01*
X107950000Y-79950000D01*
X107950000Y-77350000D01*
X107730000Y-77081112D01*
X107730000Y-76000000D01*
X109440000Y-76000000D01*
X109440000Y-81500000D01*
G37*
G04 #@! TD.AperFunction*
D10*
G04 #@! TA.AperFunction,Conductor*
G36*
X102650000Y-96650000D02*
G01*
X100400000Y-96650000D01*
X100400000Y-92100000D01*
X102650000Y-92100000D01*
X102650000Y-96650000D01*
G37*
G04 #@! TD.AperFunction*
D11*
X109440000Y-88500000D02*
X106940000Y-90500000D01*
X105030000Y-90500000D01*
X102600000Y-92250000D01*
X100430000Y-92250000D01*
X100440000Y-87000000D01*
X106940000Y-87050000D01*
X107940000Y-86000000D01*
X107940000Y-81500000D01*
X109440000Y-81500000D01*
X109440000Y-88500000D01*
G04 #@! TA.AperFunction,Conductor*
G36*
X109440000Y-88500000D02*
G01*
X106940000Y-90500000D01*
X105030000Y-90500000D01*
X102600000Y-92250000D01*
X100430000Y-92250000D01*
X100440000Y-87000000D01*
X106940000Y-87050000D01*
X107940000Y-86000000D01*
X107940000Y-81500000D01*
X109440000Y-81500000D01*
X109440000Y-88500000D01*
G37*
G04 #@! TD.AperFunction*
D13*
X95500000Y-81750000D03*
X95500000Y-74950000D03*
D14*
X89375000Y-89980000D03*
X92500000Y-89980000D03*
D15*
X89000000Y-84000000D03*
X91000000Y-84000000D03*
D16*
X105500000Y-88600000D03*
X105500000Y-85500000D03*
D15*
X106500000Y-78500000D03*
X108500000Y-78500000D03*
D17*
X108190000Y-82140000D03*
X107055000Y-82140000D03*
D18*
X100850000Y-81525000D03*
X100850000Y-82175000D03*
X100850000Y-82825000D03*
X100850000Y-83475000D03*
X105150000Y-83475000D03*
X105150000Y-82825000D03*
X105150000Y-82175000D03*
X105150000Y-81525000D03*
D19*
X102515000Y-81855000D03*
X102515000Y-83145000D03*
D20*
X103000000Y-82500000D03*
D19*
X103485000Y-81855000D03*
X103485000Y-83145000D03*
D21*
X101440000Y-74450000D03*
X101440000Y-75400000D03*
X101440000Y-76350000D03*
X103760000Y-76350000D03*
X103760000Y-75400000D03*
X103760000Y-74450000D03*
D22*
X104250000Y-78600000D03*
X102250000Y-78600000D03*
D15*
X90000000Y-87500000D03*
X92000000Y-87500000D03*
D23*
X100975000Y-90580000D03*
X97850000Y-90580000D03*
D24*
X106865000Y-76500000D03*
X108000000Y-76500000D03*
D25*
X90500000Y-77000000D03*
X81500000Y-77000000D03*
D26*
X93660000Y-86990000D03*
X95500000Y-88160000D03*
X97130000Y-88160000D03*
X97130000Y-86990000D03*
X93660000Y-88160000D03*
X95500000Y-86990000D03*
X106900000Y-83900000D03*
X99704667Y-75953334D03*
X105300000Y-75500000D03*
X103400000Y-85530000D03*
D27*
X92550000Y-74950000D02*
X91300000Y-76200000D01*
X98140000Y-74950000D02*
X92550000Y-74950000D01*
X98740000Y-74350000D02*
X98140000Y-74950000D01*
D28*
X105500000Y-88600000D02*
X106400000Y-88600000D01*
X108500000Y-78500000D02*
X108500000Y-81000000D01*
X106335000Y-81525000D02*
X106340000Y-81520000D01*
X101625000Y-91000000D02*
X101625000Y-88500000D01*
X101625000Y-88500000D02*
X102000000Y-88500000D01*
X106800000Y-75200000D02*
X106900000Y-75100000D01*
X106900000Y-75100000D02*
X108300000Y-75100000D01*
X104250000Y-78600000D02*
X104250000Y-77750000D01*
X108500000Y-86500000D02*
X108500000Y-81000000D01*
X108500000Y-77000000D02*
X108000000Y-76500000D01*
X102100000Y-88600000D02*
X105500000Y-88600000D01*
X102000000Y-88500000D02*
X102100000Y-88600000D01*
X106400000Y-88600000D02*
X108500000Y-86500000D01*
X108500000Y-78500000D02*
X108500000Y-77000000D01*
X104250000Y-77750000D02*
X106800000Y-75200000D01*
D12*
X105112500Y-81525000D02*
X106335000Y-81525000D01*
D28*
X108500000Y-81000000D02*
X108365000Y-80865000D01*
X108365000Y-80865000D02*
X107000000Y-80865000D01*
X97025000Y-83475000D02*
X95500000Y-81950000D01*
X100887500Y-83475000D02*
X97025000Y-83475000D01*
X92500000Y-88000000D02*
X92000000Y-87500000D01*
X92500000Y-90980000D02*
X92500000Y-88000000D01*
X95500000Y-91000000D02*
X92520000Y-91000000D01*
X95500000Y-88070000D02*
X95500000Y-91000000D01*
X97025000Y-83475000D02*
X95500000Y-85000000D01*
X95500000Y-86970000D02*
X95500000Y-88070000D01*
X98500000Y-91000000D02*
X95500000Y-91000000D01*
X92520000Y-91000000D02*
X92500000Y-90980000D01*
X95500000Y-85000000D02*
X95500000Y-86970000D01*
X81500000Y-83625000D02*
X81500000Y-77000000D01*
X81875000Y-84000000D02*
X81500000Y-83625000D01*
D29*
X89000000Y-84000000D02*
X81875000Y-84000000D01*
D28*
X89375000Y-91500000D02*
X81500000Y-83625000D01*
X106825000Y-82175000D02*
X105112500Y-82175000D01*
X100887500Y-80312500D02*
X100887500Y-81525000D01*
X101200000Y-80000000D02*
X100887500Y-80312500D01*
X106500000Y-78500000D02*
X106500000Y-76865000D01*
X105000000Y-80000000D02*
X101200000Y-80000000D01*
X106500000Y-78500000D02*
X105000000Y-80000000D01*
X106500000Y-76865000D02*
X106865000Y-76500000D01*
X100086332Y-81525000D02*
X100887500Y-81525000D01*
D27*
X98740000Y-73550000D02*
X99090000Y-73200000D01*
X99090000Y-73200000D02*
X103600000Y-73200000D01*
D28*
X91300000Y-76200000D02*
X90500000Y-77000000D01*
D27*
X98740000Y-74350000D02*
X98740000Y-73550000D01*
D28*
X101440000Y-74450000D02*
X101440000Y-75400000D01*
D27*
X103760000Y-73360000D02*
X103760000Y-74450000D01*
D28*
X98740000Y-74350000D02*
X98840000Y-74450000D01*
D27*
X98840000Y-74450000D02*
X101440000Y-74450000D01*
D29*
X103600000Y-73200000D02*
X103760000Y-73360000D01*
D28*
X103760000Y-75400000D02*
X103760000Y-74450000D01*
X100491333Y-76740000D02*
X101050000Y-76740000D01*
X99704667Y-75953334D02*
X100491333Y-76740000D01*
X106900000Y-83020000D02*
X106705000Y-82825000D01*
X106900000Y-83900000D02*
X106900000Y-83020000D01*
X101050000Y-76740000D02*
X101440000Y-76350000D01*
X106705000Y-82825000D02*
X105112500Y-82825000D01*
X105470000Y-85530000D02*
X105500000Y-85500000D01*
D29*
X104250000Y-76350000D02*
X103760000Y-76350000D01*
X105300000Y-75500000D02*
X105100000Y-75500000D01*
D28*
X105112500Y-85112500D02*
X105112500Y-83475000D01*
D29*
X103400000Y-85530000D02*
X105470000Y-85530000D01*
D28*
X105500000Y-85500000D02*
X105112500Y-85112500D01*
D29*
X105100000Y-75500000D02*
X104250000Y-76350000D01*
D28*
X99100000Y-81700000D02*
X99575000Y-82175000D01*
X99100000Y-79200000D02*
X99100000Y-81700000D01*
X99700000Y-78600000D02*
X99100000Y-79200000D01*
X99575000Y-82175000D02*
X100887500Y-82175000D01*
X102250000Y-78600000D02*
X99700000Y-78600000D01*
X91000000Y-84000000D02*
X91000000Y-81500000D01*
X90000000Y-87500000D02*
X90000000Y-86000000D01*
X98825000Y-82825000D02*
X100887500Y-82825000D01*
X98000000Y-82000000D02*
X98825000Y-82825000D01*
X98000000Y-79500000D02*
X98000000Y-82000000D01*
X90000000Y-86000000D02*
X91000000Y-85000000D01*
X97000000Y-78500000D02*
X98000000Y-79500000D01*
X94000000Y-78500000D02*
X97000000Y-78500000D01*
X91000000Y-85000000D02*
X91000000Y-84000000D01*
X91000000Y-81500000D02*
X94000000Y-78500000D01*
G04 #@! TA.AperFunction,Conductor*
G36*
X98641600Y-85580001D02*
G01*
X98641600Y-96556000D01*
X98621915Y-96623039D01*
X98569111Y-96668794D01*
X98517600Y-96680000D01*
X91984000Y-96680000D01*
X91916961Y-96660315D01*
X91871206Y-96607511D01*
X91860000Y-96556000D01*
X91860000Y-85620957D01*
X91866161Y-85599974D01*
X91867498Y-85580000D01*
X98641600Y-85580000D01*
X98641600Y-85580001D01*
G37*
G04 #@! TD.AperFunction*
G04 #@! TA.AperFunction,Conductor*
G36*
X95568039Y-81769685D02*
G01*
X95613794Y-81822489D01*
X95625000Y-81874000D01*
X95625000Y-83199999D01*
X96954196Y-83199999D01*
X96984606Y-83197148D01*
X97112645Y-83152346D01*
X97221791Y-83071792D01*
X97289944Y-82979448D01*
X97345592Y-82937197D01*
X97415248Y-82931738D01*
X97476797Y-82964805D01*
X97478774Y-82966799D01*
X97850000Y-83350000D01*
X98432834Y-83350000D01*
X98499873Y-83369685D01*
X98501725Y-83370898D01*
X98524926Y-83386401D01*
X98582570Y-83410277D01*
X98640215Y-83434155D01*
X98742708Y-83454542D01*
X98762601Y-83458499D01*
X98762605Y-83458500D01*
X98762606Y-83458500D01*
X98887394Y-83458500D01*
X99801001Y-83458500D01*
X99868040Y-83478185D01*
X99913795Y-83530989D01*
X99925001Y-83582500D01*
X99925001Y-83638077D01*
X99931232Y-83685416D01*
X99931232Y-83685417D01*
X99979668Y-83789288D01*
X100060711Y-83870331D01*
X100164582Y-83918767D01*
X100164590Y-83918769D01*
X100211904Y-83924998D01*
X100211921Y-83924999D01*
X100724999Y-83924999D01*
X100725000Y-83924998D01*
X100725000Y-83707499D01*
X100727550Y-83698813D01*
X100726262Y-83689852D01*
X100737240Y-83665811D01*
X100744685Y-83640460D01*
X100751525Y-83634532D01*
X100755287Y-83626296D01*
X100777521Y-83612006D01*
X100797489Y-83594705D01*
X100808003Y-83592417D01*
X100814065Y-83588522D01*
X100848996Y-83583499D01*
X100851001Y-83583499D01*
X100918039Y-83603184D01*
X100963794Y-83655988D01*
X100975000Y-83707499D01*
X100975000Y-83924999D01*
X101476000Y-83924999D01*
X101484685Y-83927549D01*
X101493647Y-83926261D01*
X101517687Y-83937239D01*
X101543039Y-83944684D01*
X101548966Y-83951524D01*
X101557203Y-83955286D01*
X101571492Y-83977520D01*
X101588794Y-83997488D01*
X101591081Y-84008002D01*
X101594977Y-84014064D01*
X101600000Y-84048999D01*
X101600000Y-84256000D01*
X101580315Y-84323039D01*
X101527511Y-84368794D01*
X101476000Y-84380000D01*
X99445448Y-84380000D01*
X98641600Y-85580000D01*
X91872026Y-85580000D01*
X91879685Y-85553918D01*
X91884388Y-85547110D01*
X93666815Y-83143344D01*
X93722555Y-83101221D01*
X93792223Y-83095919D01*
X93840051Y-83117434D01*
X93887355Y-83152346D01*
X93887354Y-83152346D01*
X94015397Y-83197149D01*
X94045792Y-83199999D01*
X95374999Y-83199999D01*
X95375000Y-83199998D01*
X95375000Y-81874000D01*
X95377550Y-81865314D01*
X95376262Y-81856353D01*
X95387240Y-81832312D01*
X95394685Y-81806961D01*
X95401525Y-81801033D01*
X95405287Y-81792797D01*
X95427521Y-81778507D01*
X95447489Y-81761206D01*
X95458003Y-81758918D01*
X95464065Y-81755023D01*
X95499000Y-81750000D01*
X95501000Y-81750000D01*
X95568039Y-81769685D01*
G37*
G04 #@! TD.AperFunction*
M02*
