G04 #@! TF.GenerationSoftware,KiCad,Pcbnew,9.0.4*
G04 #@! TF.CreationDate,2025-08-28T22:57:06-04:00*
G04 #@! TF.ProjectId,PowerSupply,506f7765-7253-4757-9070-6c792e6b6963,rev?*
G04 #@! TF.SameCoordinates,Original*
G04 #@! TF.FileFunction,Copper,L2,Bot*
G04 #@! TF.FilePolarity,Positive*
%FSLAX46Y46*%
G04 Gerber Fmt 4.6, Leading zero omitted, Abs format (unit mm)*
G04 Created by KiCad (PCBNEW 9.0.4) date 2025-08-28 22:57:06*
%MOMM*%
%LPD*%
G01*
G04 APERTURE LIST*
G04 #@! TA.AperFunction,HeatsinkPad*
%ADD10C,0.600000*%
G04 #@! TD*
G04 #@! TA.AperFunction,HeatsinkPad*
%ADD11R,1.570000X1.890000*%
G04 #@! TD*
G04 #@! TA.AperFunction,ViaPad*
%ADD12C,0.800000*%
G04 #@! TD*
G04 #@! TA.AperFunction,Conductor*
%ADD13C,0.250000*%
G04 #@! TD*
G04 #@! TA.AperFunction,Conductor*
%ADD14C,0.400000*%
G04 #@! TD*
G04 APERTURE END LIST*
D10*
X102515000Y-81855000D03*
X102515000Y-83145000D03*
D11*
X103000000Y-82500000D03*
D10*
X103485000Y-81855000D03*
X103485000Y-83145000D03*
D12*
X93660000Y-86990000D03*
X95500000Y-88160000D03*
X97130000Y-88160000D03*
X97130000Y-86990000D03*
X93660000Y-88160000D03*
X95500000Y-86990000D03*
X106900000Y-83900000D03*
X99704667Y-75953334D03*
X105300000Y-75500000D03*
X103400000Y-85530000D03*
D13*
X107050000Y-79950000D02*
X103053334Y-75953334D01*
X107050000Y-79950000D02*
X107050000Y-83750000D01*
X99682000Y-75976001D02*
X99704667Y-75953334D01*
X106900000Y-83900000D02*
X106870000Y-83870000D01*
X99682000Y-75982000D02*
X99682000Y-75976001D01*
X103053334Y-75953334D02*
X99704667Y-75953334D01*
X107050000Y-83750000D02*
X106900000Y-83900000D01*
D14*
X106000000Y-76200000D02*
X105300000Y-75500000D01*
X108700000Y-85000000D02*
X108700000Y-76200000D01*
X108170000Y-85530000D02*
X108700000Y-85000000D01*
X108700000Y-76200000D02*
X106000000Y-76200000D01*
X103400000Y-85530000D02*
X108170000Y-85530000D01*
G04 #@! TA.AperFunction,Conductor*
G36*
X96513039Y-71369685D02*
G01*
X96558794Y-71422489D01*
X96570000Y-71474000D01*
X96570000Y-79220000D01*
X104676941Y-79220000D01*
X104743980Y-79239685D01*
X104764622Y-79256319D01*
X105888181Y-80379878D01*
X105921666Y-80441201D01*
X105924500Y-80467559D01*
X105924500Y-82843531D01*
X105904815Y-82910570D01*
X105888181Y-82931212D01*
X105831756Y-82987636D01*
X105831752Y-82987641D01*
X105702187Y-83165974D01*
X105602104Y-83362393D01*
X105602103Y-83362396D01*
X105533985Y-83572047D01*
X105533985Y-83572049D01*
X105499500Y-83789778D01*
X105499500Y-84010222D01*
X105520547Y-84143110D01*
X105527357Y-84186102D01*
X105518402Y-84255395D01*
X105473406Y-84308847D01*
X105406655Y-84329487D01*
X105404884Y-84329500D01*
X104158523Y-84329500D01*
X104102228Y-84315985D01*
X103937606Y-84232104D01*
X103937603Y-84232103D01*
X103727951Y-84163984D01*
X103709497Y-84161062D01*
X103646362Y-84131133D01*
X103609430Y-84071822D01*
X103610428Y-84001959D01*
X103649037Y-83943727D01*
X103704704Y-83916971D01*
X103718349Y-83914256D01*
X103847293Y-83860845D01*
X103485001Y-83498553D01*
X103147378Y-83836173D01*
X103259780Y-83922144D01*
X103271224Y-83937765D01*
X103286304Y-83949918D01*
X103291446Y-83965369D01*
X103301071Y-83978507D01*
X103302252Y-83997837D01*
X103308368Y-84016212D01*
X103304340Y-84031991D01*
X103305334Y-84048247D01*
X103295877Y-84065147D01*
X103291088Y-84083911D01*
X103279169Y-84095007D01*
X103271217Y-84109220D01*
X103254124Y-84118325D01*
X103239951Y-84131521D01*
X103213284Y-84140080D01*
X103209551Y-84142069D01*
X103207589Y-84141908D01*
X103203845Y-84143110D01*
X103072047Y-84163985D01*
X102862396Y-84232103D01*
X102862393Y-84232104D01*
X102665974Y-84332187D01*
X102487641Y-84461752D01*
X102487636Y-84461756D01*
X102331756Y-84617636D01*
X102331752Y-84617641D01*
X102202187Y-84795974D01*
X102102104Y-84992393D01*
X102102103Y-84992396D01*
X102033985Y-85202047D01*
X101999500Y-85419778D01*
X101999500Y-85640221D01*
X102033985Y-85857952D01*
X102102103Y-86067603D01*
X102102104Y-86067606D01*
X102202187Y-86264025D01*
X102331752Y-86442358D01*
X102331756Y-86442363D01*
X102487636Y-86598243D01*
X102487641Y-86598247D01*
X102643192Y-86711260D01*
X102665978Y-86727815D01*
X102794375Y-86793237D01*
X102862393Y-86827895D01*
X102862396Y-86827896D01*
X102967221Y-86861955D01*
X103072049Y-86896015D01*
X103289778Y-86930500D01*
X103289779Y-86930500D01*
X103510221Y-86930500D01*
X103510222Y-86930500D01*
X103727951Y-86896015D01*
X103937606Y-86827895D01*
X104102228Y-86744015D01*
X104158523Y-86730500D01*
X108264486Y-86730500D01*
X108451118Y-86700940D01*
X108630832Y-86642547D01*
X108799199Y-86556760D01*
X108952074Y-86445690D01*
X109438319Y-85959445D01*
X109499642Y-85925960D01*
X109569334Y-85930944D01*
X109625267Y-85972816D01*
X109649684Y-86038280D01*
X109650000Y-86047126D01*
X109650000Y-92526000D01*
X109630315Y-92593039D01*
X109577511Y-92638794D01*
X109526000Y-92650000D01*
X102650000Y-92650000D01*
X102650000Y-96526000D01*
X102630315Y-96593039D01*
X102577511Y-96638794D01*
X102526000Y-96650000D01*
X87474000Y-96650000D01*
X87406961Y-96630315D01*
X87361206Y-96577511D01*
X87350000Y-96526000D01*
X87350000Y-92650000D01*
X80474000Y-92650000D01*
X80406961Y-92630315D01*
X80361206Y-92577511D01*
X80350000Y-92526000D01*
X80350000Y-83860845D01*
X102152706Y-83860845D01*
X102281652Y-83914257D01*
X102281656Y-83914258D01*
X102436202Y-83944999D01*
X102436206Y-83945000D01*
X102593794Y-83945000D01*
X102593797Y-83944999D01*
X102748343Y-83914258D01*
X102748347Y-83914257D01*
X102877292Y-83860845D01*
X102877292Y-83860844D01*
X102515001Y-83498553D01*
X102515000Y-83498553D01*
X102152706Y-83860845D01*
X80350000Y-83860845D01*
X80350000Y-83066202D01*
X101715000Y-83066202D01*
X101715000Y-83223797D01*
X101745741Y-83378343D01*
X101745743Y-83378351D01*
X101799153Y-83507293D01*
X102161446Y-83145001D01*
X102161446Y-83144999D01*
X102131610Y-83115163D01*
X102365000Y-83115163D01*
X102365000Y-83174837D01*
X102387836Y-83229968D01*
X102430032Y-83272164D01*
X102485163Y-83295000D01*
X102544837Y-83295000D01*
X102599968Y-83272164D01*
X102642164Y-83229968D01*
X102665000Y-83174837D01*
X102665000Y-83144999D01*
X102868553Y-83144999D01*
X103000000Y-83276446D01*
X103131446Y-83145001D01*
X103131446Y-83145000D01*
X103101609Y-83115163D01*
X103335000Y-83115163D01*
X103335000Y-83174837D01*
X103357836Y-83229968D01*
X103400032Y-83272164D01*
X103455163Y-83295000D01*
X103514837Y-83295000D01*
X103569968Y-83272164D01*
X103612164Y-83229968D01*
X103635000Y-83174837D01*
X103635000Y-83144999D01*
X103838553Y-83144999D01*
X103838553Y-83145001D01*
X104200845Y-83507293D01*
X104254257Y-83378347D01*
X104254258Y-83378343D01*
X104284999Y-83223797D01*
X104285000Y-83223794D01*
X104285000Y-83066206D01*
X104284999Y-83066202D01*
X104254258Y-82911656D01*
X104254257Y-82911652D01*
X104200845Y-82782706D01*
X103838553Y-83144999D01*
X103635000Y-83144999D01*
X103635000Y-83115163D01*
X103612164Y-83060032D01*
X103569968Y-83017836D01*
X103514837Y-82995000D01*
X103455163Y-82995000D01*
X103400032Y-83017836D01*
X103357836Y-83060032D01*
X103335000Y-83115163D01*
X103101609Y-83115163D01*
X103000000Y-83013553D01*
X102868553Y-83144999D01*
X102665000Y-83144999D01*
X102665000Y-83115163D01*
X102642164Y-83060032D01*
X102599968Y-83017836D01*
X102544837Y-82995000D01*
X102485163Y-82995000D01*
X102430032Y-83017836D01*
X102387836Y-83060032D01*
X102365000Y-83115163D01*
X102131610Y-83115163D01*
X101799153Y-82782705D01*
X101745743Y-82911648D01*
X101745741Y-82911656D01*
X101715000Y-83066202D01*
X80350000Y-83066202D01*
X80350000Y-82500000D01*
X102223553Y-82500000D01*
X102515000Y-82791446D01*
X102515001Y-82791446D01*
X102806446Y-82500001D01*
X102806446Y-82500000D01*
X103193553Y-82500000D01*
X103485000Y-82791446D01*
X103485001Y-82791446D01*
X103776446Y-82500001D01*
X103776446Y-82499999D01*
X103485001Y-82208553D01*
X103485000Y-82208553D01*
X103193553Y-82500000D01*
X102806446Y-82500000D01*
X102806446Y-82499999D01*
X102515001Y-82208553D01*
X102515000Y-82208553D01*
X102223553Y-82500000D01*
X80350000Y-82500000D01*
X80350000Y-81776202D01*
X101715000Y-81776202D01*
X101715000Y-81933797D01*
X101745741Y-82088343D01*
X101745743Y-82088351D01*
X101799153Y-82217293D01*
X102161446Y-81855001D01*
X102161446Y-81854999D01*
X102131610Y-81825163D01*
X102365000Y-81825163D01*
X102365000Y-81884837D01*
X102387836Y-81939968D01*
X102430032Y-81982164D01*
X102485163Y-82005000D01*
X102544837Y-82005000D01*
X102599968Y-81982164D01*
X102642164Y-81939968D01*
X102665000Y-81884837D01*
X102665000Y-81854999D01*
X102868553Y-81854999D01*
X103000000Y-81986446D01*
X103131446Y-81855001D01*
X103131446Y-81855000D01*
X103101609Y-81825163D01*
X103335000Y-81825163D01*
X103335000Y-81884837D01*
X103357836Y-81939968D01*
X103400032Y-81982164D01*
X103455163Y-82005000D01*
X103514837Y-82005000D01*
X103569968Y-81982164D01*
X103612164Y-81939968D01*
X103635000Y-81884837D01*
X103635000Y-81854999D01*
X103838553Y-81854999D01*
X103838553Y-81855001D01*
X104200845Y-82217293D01*
X104254257Y-82088347D01*
X104254258Y-82088343D01*
X104284999Y-81933797D01*
X104285000Y-81933794D01*
X104285000Y-81776206D01*
X104284999Y-81776202D01*
X104254258Y-81621656D01*
X104254257Y-81621652D01*
X104200845Y-81492706D01*
X103838553Y-81854999D01*
X103635000Y-81854999D01*
X103635000Y-81825163D01*
X103612164Y-81770032D01*
X103569968Y-81727836D01*
X103514837Y-81705000D01*
X103455163Y-81705000D01*
X103400032Y-81727836D01*
X103357836Y-81770032D01*
X103335000Y-81825163D01*
X103101609Y-81825163D01*
X103000000Y-81723553D01*
X102868553Y-81854999D01*
X102665000Y-81854999D01*
X102665000Y-81825163D01*
X102642164Y-81770032D01*
X102599968Y-81727836D01*
X102544837Y-81705000D01*
X102485163Y-81705000D01*
X102430032Y-81727836D01*
X102387836Y-81770032D01*
X102365000Y-81825163D01*
X102131610Y-81825163D01*
X101799153Y-81492705D01*
X101745743Y-81621648D01*
X101745741Y-81621656D01*
X101715000Y-81776202D01*
X80350000Y-81776202D01*
X80350000Y-81139153D01*
X102152705Y-81139153D01*
X102515000Y-81501446D01*
X102515001Y-81501446D01*
X102877292Y-81139153D01*
X103122705Y-81139153D01*
X103485000Y-81501446D01*
X103485001Y-81501446D01*
X103847293Y-81139153D01*
X103718351Y-81085743D01*
X103718343Y-81085741D01*
X103563797Y-81055000D01*
X103406202Y-81055000D01*
X103251656Y-81085741D01*
X103251648Y-81085743D01*
X103122705Y-81139153D01*
X102877292Y-81139153D01*
X102877293Y-81139152D01*
X102748351Y-81085743D01*
X102748343Y-81085741D01*
X102593797Y-81055000D01*
X102436202Y-81055000D01*
X102281656Y-81085741D01*
X102281648Y-81085743D01*
X102152705Y-81139153D01*
X80350000Y-81139153D01*
X80350000Y-71474000D01*
X80369685Y-71406961D01*
X80422489Y-71361206D01*
X80474000Y-71350000D01*
X96446000Y-71350000D01*
X96513039Y-71369685D01*
G37*
G04 #@! TD.AperFunction*
M02*
